<svg xmlns="http://www.w3.org/2000/svg" width="344.06" height="497.88" viewBox="0 0 344.06 497.88">
  <defs>
    <style>
      .cls-1 {
        fill: #313852;
      }
    </style>
  </defs>
  <path id="Path_2" data-name="Path 2" class="cls-1" d="M13.12-1.28V-14H3.68L3.52-9.46C3.38-5,2.94-1.4.94-1.28H.24L.22,3.14H1.6L1.62,0H13.84V3.14h1.38V-1.28ZM4.84-9.32l.12-3.4h6.7V-1.28H3.04C4.38-2.3,4.72-5.68,4.84-9.32ZM21.94.1a5.175,5.175,0,0,0,5.34-5.36,5.158,5.158,0,0,0-5.34-5.34,5.174,5.174,0,0,0-5.36,5.34A5.191,5.191,0,0,0,21.94.1Zm0-1.26a3.852,3.852,0,0,1-3.92-4.1,3.852,3.852,0,0,1,3.92-4.1,3.836,3.836,0,0,1,3.9,4.1A3.836,3.836,0,0,1,21.94-1.16Zm13.8-9.44a4.582,4.582,0,0,0-4.06,2.16v-2.08H30.32V3.88h1.42V-1.98a4.6,4.6,0,0,0,4,2.08,5.1,5.1,0,0,0,5.24-5.36A5.089,5.089,0,0,0,35.74-10.6Zm-.1,9.44a3.852,3.852,0,0,1-3.92-4.1,3.863,3.863,0,0,1,3.92-4.1,3.874,3.874,0,0,1,3.92,4.1A3.863,3.863,0,0,1,35.64-1.16ZM48.38.1a5.175,5.175,0,0,0,5.34-5.36,5.158,5.158,0,0,0-5.34-5.34,5.174,5.174,0,0,0-5.36,5.34A5.191,5.191,0,0,0,48.38.1Zm0-1.26a3.852,3.852,0,0,1-3.92-4.1,3.852,3.852,0,0,1,3.92-4.1,3.836,3.836,0,0,1,3.9,4.1A3.836,3.836,0,0,1,48.38-1.16ZM64.2-10.52H56.76V0h1.42V-9.26H64.2ZM66.26,0h1.28l7-8.36V0h1.42V-10.52H74.7L67.68-2.16v-8.36H66.26ZM89.24-5.26a5.013,5.013,0,0,0-5.1-5.34A5.067,5.067,0,0,0,79-5.26,5.21,5.21,0,0,0,84.52.1a5.178,5.178,0,0,0,4.06-1.72l-.8-.92a4.147,4.147,0,0,1-3.22,1.38,3.894,3.894,0,0,1-4.14-3.66h8.8C89.22-4.98,89.24-5.14,89.24-5.26Zm-5.1-4.12a3.659,3.659,0,0,1,3.74,3.5H80.42A3.654,3.654,0,0,1,84.14-9.38Zm22.1,8.14v-9.28H98.48L98.34-7c-.14,2.84-.4,5.66-1.96,5.76h-.6V2.54h1.34V0h9.42V2.54h1.34V-1.24Zm-6.6-5.68.12-2.34h5.06v8.02H98.26C99.32-2.04,99.54-4.52,99.64-6.92Zm16.42-3.68A4.582,4.582,0,0,0,112-8.44v-2.08h-1.36V3.88h1.42V-1.98a4.6,4.6,0,0,0,4,2.08,5.1,5.1,0,0,0,5.24-5.36A5.089,5.089,0,0,0,116.06-10.6Zm-.1,9.44a3.852,3.852,0,0,1-3.92-4.1,3.863,3.863,0,0,1,3.92-4.1,3.874,3.874,0,0,1,3.92,4.1A3.863,3.863,0,0,1,115.96-1.16Zm15.64-9.36-3.96,8.94-3.96-8.94H122.2l4.7,10.5L126.44,1c-.6,1.32-1.24,1.76-2.18,1.76a2.627,2.627,0,0,1-1.92-.8l-.66,1.06a3.6,3.6,0,0,0,2.56.96c1.5,0,2.62-.66,3.5-2.72L133-10.52Zm8.46,5.04a2.579,2.579,0,0,0,2.04-2.34c0-1.72-1.84-2.82-4.24-2.82a8.347,8.347,0,0,0-3.9.98l.4,1.1a7.357,7.357,0,0,1,3.36-.86c1.68,0,2.92.64,2.92,1.8,0,1.04-1.08,1.66-2.62,1.66H136.3v1.04h1.8c1.76,0,2.84.66,2.84,1.78,0,1.28-1.42,2.04-3.32,2.04A6.181,6.181,0,0,1,134-2.24l-.48,1.06a6.951,6.951,0,0,0,4.16,1.3c2.62,0,4.72-1.24,4.72-3.14C142.4-4.26,141.54-5.14,140.06-5.48ZM150.14-6.8l-3.1-.04v-3.68h-1.42V0l4.24.02c2.8.04,4.32-1.22,4.32-3.46C154.18-5.6,152.78-6.78,150.14-6.8Zm-.36,5.74-2.74-.04V-5.78l2.74.04c1.96.02,2.96.74,2.96,2.3C152.74-1.86,151.72-1.04,149.78-1.06Zm9.98-9.46c-2.72,0-4.48,1.2-4.48,3.6a3.138,3.138,0,0,0,2.54,3.24L155.2,0h1.54l2.44-3.48h3.7V0h1.3V-10.52Zm-3.04,3.64c0-1.68,1.12-2.38,3.08-2.38h3.08v4.72H159.7C157.74-4.54,156.72-5.28,156.72-6.88ZM168.24-4.2h1.1l.3-9.8h-1.68ZM168.8.1a1.033,1.033,0,0,0,1.04-1.04,1,1,0,0,0-1.04-1.02,1.021,1.021,0,0,0-1.06,1.02A1.05,1.05,0,0,0,168.8.1ZM2.36,34V48H3.82V35.28h8.86V48h1.46V34Zm21.58,3.4a4.582,4.582,0,0,0-4.06,2.16V37.48H18.52v14.4h1.42V46.02a4.6,4.6,0,0,0,4,2.08,5.1,5.1,0,0,0,5.24-5.36A5.089,5.089,0,0,0,23.94,37.4Zm-.1,9.44a3.852,3.852,0,0,1-3.92-4.1,3.924,3.924,0,1,1,7.84,0A3.863,3.863,0,0,1,23.84,46.84ZM32.24,48h1.28l7-8.36V48h1.42V37.48H40.68l-7.02,8.36V37.48H32.24Zm21.2-10.52H46V48h1.42V38.74h6.02Zm2.32,0-.18,3.76c-.14,2.78-.3,5.6-2.04,5.6a2.57,2.57,0,0,1-.5-.08l-.1,1.22a3.976,3.976,0,0,0,1.02.16c2.26,0,2.72-3.12,2.9-6.8l.14-2.6h5.04V48h1.42V37.48Zm15.36-.08a6.68,6.68,0,0,0-4.28,1.42l.64,1.06a5.359,5.359,0,0,1,3.5-1.24c1.96,0,2.98.98,2.98,2.78v.64H70.62c-3.02,0-4.06,1.36-4.06,2.98,0,1.82,1.46,3.06,3.84,3.06a3.95,3.95,0,0,0,3.62-1.74V48h1.36V41.48C75.38,38.76,73.84,37.4,71.12,37.4Zm-.5,9.58c-1.68,0-2.66-.76-2.66-1.98,0-1.08.66-1.88,2.7-1.88h3.3v1.72A3.366,3.366,0,0,1,70.62,46.98Zm21.64-9.5v9.28h-5.1V37.48H85.74v9.28H80.58V37.48H79.16V48H93.68V37.48Zm9.1-.08a6.68,6.68,0,0,0-4.28,1.42l.64,1.06a5.359,5.359,0,0,1,3.5-1.24c1.96,0,2.98.98,2.98,2.78v.64h-3.34c-3.02,0-4.06,1.36-4.06,2.98,0,1.82,1.46,3.06,3.84,3.06a3.95,3.95,0,0,0,3.62-1.74V48h1.36V41.48C105.62,38.76,104.08,37.4,101.36,37.4Zm-.5,9.58c-1.68,0-2.66-.76-2.66-1.98,0-1.08.66-1.88,2.7-1.88h3.3v1.72A3.366,3.366,0,0,1,100.86,46.98Zm17.76-4.24a5.013,5.013,0,0,0-5.1-5.34,5.067,5.067,0,0,0-5.14,5.34,5.562,5.562,0,0,0,9.58,3.64l-.8-.92a4.147,4.147,0,0,1-3.22,1.38,3.894,3.894,0,0,1-4.14-3.66h8.8C118.6,43.02,118.62,42.86,118.62,42.74Zm-5.1-4.12a3.659,3.659,0,0,1,3.74,3.5H109.8A3.654,3.654,0,0,1,113.52,38.62Zm18.68-1.14-4.54,7.58-4.46-7.58h-1.44V48h1.3V39.66l4.26,7.06h.64l4.26-7.04V48h1.3V37.48Zm17.3,5.08a2.437,2.437,0,0,0,1.78-2.38c0-1.74-1.46-2.7-3.84-2.7H142.8V48h4.78c2.74,0,4.06-1.04,4.06-2.86A2.429,2.429,0,0,0,149.5,42.56Zm-5.32-3.96h3.16c1.62,0,2.52.58,2.52,1.76s-.9,1.8-2.52,1.8h-3.16Zm3.34,8.28h-3.34V43.22h3.48c1.78,0,2.58.58,2.58,1.84S149.3,46.88,147.52,46.88Zm11.06-9.48a6.68,6.68,0,0,0-4.28,1.42l.64,1.06a5.359,5.359,0,0,1,3.5-1.24c1.96,0,2.98.98,2.98,2.78v.64h-3.34c-3.02,0-4.06,1.36-4.06,2.98,0,1.82,1.46,3.06,3.84,3.06a3.95,3.95,0,0,0,3.62-1.74V48h1.36V41.48C162.84,38.76,161.3,37.4,158.58,37.4Zm-.5,9.58c-1.68,0-2.66-.76-2.66-1.98,0-1.08.66-1.88,2.7-1.88h3.3v1.72A3.366,3.366,0,0,1,158.08,46.98Zm12.94,1.12a4.638,4.638,0,0,0,4.12-2.08l-1.06-.72a3.558,3.558,0,0,1-3.06,1.54,3.854,3.854,0,0,1-3.98-4.1,3.865,3.865,0,0,1,3.98-4.1,3.576,3.576,0,0,1,3.06,1.56l1.06-.72a4.6,4.6,0,0,0-4.12-2.08,5.35,5.35,0,1,0,0,10.7Zm12.1-10.62V48h1.42V38.74h6.6V48h1.42V37.48ZM200.94,48.1a5.35,5.35,0,1,0-5.36-5.36A5.175,5.175,0,0,0,200.94,48.1Zm0-1.26a3.852,3.852,0,0,1-3.92-4.1,3.914,3.914,0,1,1,7.82,0A3.836,3.836,0,0,1,200.94,46.84Zm12.78,1.26a4.638,4.638,0,0,0,4.12-2.08l-1.06-.72a3.558,3.558,0,0,1-3.06,1.54,3.854,3.854,0,0,1-3.98-4.1,3.865,3.865,0,0,1,3.98-4.1,3.576,3.576,0,0,1,3.06,1.56l1.06-.72a4.6,4.6,0,0,0-4.12-2.08,5.35,5.35,0,1,0,0,10.7Zm15.9-5.36a5.013,5.013,0,0,0-5.1-5.34,5.067,5.067,0,0,0-5.14,5.34,5.562,5.562,0,0,0,9.58,3.64l-.8-.92a4.147,4.147,0,0,1-3.22,1.38,3.894,3.894,0,0,1-4.14-3.66h8.8C229.6,43.02,229.62,42.86,229.62,42.74Zm-5.1-4.12a3.659,3.659,0,0,1,3.74,3.5H220.8A3.654,3.654,0,0,1,224.52,38.62Zm15.18-1.14h-9.38v1.26h3.98V48h1.42V38.74h3.98ZM241.76,48h1.28l7-8.36V48h1.42V37.48H250.2l-7.02,8.36V37.48h-1.42Zm21.16-10.52h-9.38v1.26h3.98V48h1.42V38.74h3.98Zm6.58,3.72-3.1-.04V37.48h-1.42V48l4.24.02c2.8.04,4.32-1.22,4.32-3.46C273.54,42.4,272.14,41.22,269.5,41.2Zm-.36,5.74-2.74-.04V42.22l2.74.04c1.96.02,2.96.74,2.96,2.3C272.1,46.14,271.08,46.96,269.14,46.94Zm24.06-.22V34h-1.46V46.72h-8.46V34h-1.46V48h12.22v3.28h1.38V46.72Zm13.74-3.98a5.013,5.013,0,0,0-5.1-5.34,5.067,5.067,0,0,0-5.14,5.34,5.562,5.562,0,0,0,9.58,3.64l-.8-.92a4.147,4.147,0,0,1-3.22,1.38,3.894,3.894,0,0,1-4.14-3.66h8.8C306.92,43.02,306.94,42.86,306.94,42.74Zm-5.1-4.12a3.659,3.659,0,0,1,3.74,3.5h-7.46A3.654,3.654,0,0,1,301.84,38.62ZM310.08,48h1.42V43.36h6.62V48h1.42V37.48h-1.42v4.66H311.5V37.48h-1.42Zm20.9-10.52H321.6v1.26h3.98V48H327V38.74h3.98Zm7.48-.08a4.582,4.582,0,0,0-4.06,2.16V37.48h-1.36v14.4h1.42V46.02a4.6,4.6,0,0,0,4,2.08,5.1,5.1,0,0,0,5.24-5.36A5.089,5.089,0,0,0,338.46,37.4Zm-.1,9.44a3.852,3.852,0,0,1-3.92-4.1,3.924,3.924,0,1,1,7.84,0A3.863,3.863,0,0,1,338.36,46.84ZM13.12,70.72V58H3.68l-.16,4.54C3.38,67,2.94,70.6.94,70.72H.24L.22,75.14H1.6L1.62,72H13.84v3.14h1.38V70.72ZM4.84,62.68l.12-3.4h6.7V70.72H3.04C4.38,69.7,4.72,66.32,4.84,62.68Zm19.92-1.2L20.8,70.42l-3.96-8.94H15.36l4.7,10.5L19.6,73c-.6,1.32-1.24,1.76-2.18,1.76a2.627,2.627,0,0,1-1.92-.8l-.66,1.06a3.6,3.6,0,0,0,2.56.96c1.5,0,2.62-.66,3.5-2.72l5.26-11.78ZM35.98,72l-4.2-5.4,3.96-5.12H34.18L31.02,65.6l-3.16-4.12h-1.6l3.96,5.12L26.06,72h1.6l3.36-4.4L34.36,72Zm6.28.1a5.35,5.35,0,1,0-5.36-5.36A5.175,5.175,0,0,0,42.26,72.1Zm0-1.26a4.105,4.105,0,1,1,3.9-4.1A3.852,3.852,0,0,1,42.26,70.84Zm15.08-4.28a2.437,2.437,0,0,0,1.78-2.38c0-1.74-1.46-2.7-3.84-2.7H50.64V72h4.78c2.74,0,4.06-1.04,4.06-2.86A2.429,2.429,0,0,0,57.34,66.56ZM52.02,62.6h3.16c1.62,0,2.52.58,2.52,1.76s-.9,1.8-2.52,1.8H52.02Zm3.34,8.28H52.02V67.22H55.5c1.78,0,2.58.58,2.58,1.84S57.14,70.88,55.36,70.88ZM62.8,72h1.42V67.36h6.62V72h1.42V61.48H70.84v4.66H64.22V61.48H62.8Zm17.84.1a5.35,5.35,0,1,0-5.36-5.36A5.175,5.175,0,0,0,80.64,72.1Zm0-1.26a4.105,4.105,0,1,1,3.9-4.1A3.852,3.852,0,0,1,80.64,70.84Zm15.82-9.36H89.02V72h1.42V62.74h6.02Zm5.92,10.62a5.35,5.35,0,1,0-5.36-5.36A5.175,5.175,0,0,0,102.38,72.1Zm0-1.26a4.105,4.105,0,1,1,3.9-4.1A3.852,3.852,0,0,1,102.38,70.84Zm22.26-6.06a3.226,3.226,0,0,0,2.28-3.2c0-2.34-1.82-3.58-4.76-3.58h-5.82V72h6.2c3.38,0,5.08-1.38,5.08-3.78A3.288,3.288,0,0,0,124.64,64.78Zm-6.84-5.6h4.28c2.14,0,3.36.9,3.36,2.58,0,1.7-1.22,2.58-3.36,2.58H117.8Zm4.74,11.64H117.8V65.48h4.74c2.36,0,3.62.82,3.62,2.64C126.16,69.96,124.9,70.82,122.54,70.82Zm12.78,1.28a5.35,5.35,0,1,0-5.36-5.36A5.175,5.175,0,0,0,135.32,72.1Zm0-1.26a4.105,4.105,0,1,1,3.9-4.1A3.852,3.852,0,0,1,135.32,70.84Zm13.42-4.32a2.579,2.579,0,0,0,2.04-2.34c0-1.72-1.84-2.82-4.24-2.82a8.347,8.347,0,0,0-3.9.98l.4,1.1a7.357,7.357,0,0,1,3.36-.86c1.68,0,2.92.64,2.92,1.8,0,1.04-1.08,1.66-2.62,1.66h-1.72v1.04h1.8c1.76,0,2.84.66,2.84,1.78,0,1.28-1.42,2.04-3.32,2.04a6.181,6.181,0,0,1-3.62-1.14l-.48,1.06a6.951,6.951,0,0,0,4.16,1.3c2.62,0,4.72-1.24,4.72-3.14C151.08,67.74,150.22,66.86,148.74,66.52Zm10.98-5.12a4.582,4.582,0,0,0-4.06,2.16V61.48H154.3v14.4h1.42V70.02a4.6,4.6,0,0,0,4,2.08,5.351,5.351,0,0,0,0-10.7Zm-.1,9.44a4.1,4.1,0,1,1,3.92-4.1A3.852,3.852,0,0,1,159.62,70.84Zm12.74,1.26A5.35,5.35,0,1,0,167,66.74,5.175,5.175,0,0,0,172.36,72.1Zm0-1.26a4.105,4.105,0,1,1,3.9-4.1A3.852,3.852,0,0,1,172.36,70.84ZM192.82,72h1.7l-3.78-5.4,3.48-5.12h-1.54l-3.1,4.62H187.3V61.48h-1.42V66.1H183.6l-3.08-4.62h-1.54l3.48,5.1L178.68,72h1.7l3.22-4.68h2.28V72h1.42V67.32h2.28Zm12.68-1.24V61.48h-7.76L197.6,65c-.14,2.84-.4,5.66-1.96,5.76h-.6v3.78h1.34V72h9.42v2.54h1.34V70.76Zm-6.6-5.68.12-2.34h5.06v8.02h-6.56C198.58,69.96,198.8,67.48,198.9,65.08Zm20.22,1.66a5.013,5.013,0,0,0-5.1-5.34,5.067,5.067,0,0,0-5.14,5.34,5.562,5.562,0,0,0,9.58,3.64l-.8-.92a4.147,4.147,0,0,1-3.22,1.38,3.894,3.894,0,0,1-4.14-3.66h8.8C219.1,67.02,219.12,66.86,219.12,66.74Zm-5.1-4.12a3.659,3.659,0,0,1,3.74,3.5H210.3A3.654,3.654,0,0,1,214.02,62.62ZM222.26,72h1.42V67.36h6.62V72h1.42V61.48H230.3v4.66h-6.62V61.48h-1.42Zm13.5,0h1.28l7-8.36V72h1.42V61.48H244.2l-7.02,8.36V61.48h-1.42Zm17.42-10.52c-2.72,0-4.48,1.2-4.48,3.6a3.138,3.138,0,0,0,2.54,3.24L248.62,72h1.54l2.44-3.48h3.7V72h1.3V61.48Zm-3.04,3.64c0-1.68,1.12-2.38,3.08-2.38h3.08v4.72h-3.18C251.16,67.46,250.14,66.72,250.14,65.12Zm11.6,6.98a1.093,1.093,0,0,0,1.08-1.1,1.075,1.075,0,0,0-1.08-1.08A1.059,1.059,0,0,0,260.68,71,1.076,1.076,0,0,0,261.74,72.1Zm13.34-14.22a6.973,6.973,0,0,0-5.28,2.06l.92.94a5.755,5.755,0,0,1,4.3-1.68,5.48,5.48,0,0,1,5.5,5.06h-7.2v1.22h7.22a5.5,5.5,0,0,1-5.52,5.32,5.755,5.755,0,0,1-4.3-1.68l-.92.94a7.153,7.153,0,1,0,5.28-12.18Zm17.26,3.6h-9.38v1.26h3.98V72h1.42V62.74h3.98Zm5.92,10.62a5.35,5.35,0,1,0-5.36-5.36A5.175,5.175,0,0,0,298.26,72.1Zm0-1.26a4.105,4.105,0,1,1,3.9-4.1A3.852,3.852,0,0,1,298.26,70.84ZM9.56,85.48,5.6,94.42,1.64,85.48H.16l4.7,10.5L4.4,97c-.6,1.32-1.24,1.76-2.18,1.76a2.627,2.627,0,0,1-1.92-.8l-.66,1.06a3.6,3.6,0,0,0,2.56.96c1.5,0,2.62-.66,3.5-2.72l5.26-11.78ZM13.18,96H14.6V91.36h6.62V96h1.42V85.48H21.22v4.66H14.6V85.48H13.18Zm13.5,0h1.28l7-8.36V96h1.42V85.48H35.12L28.1,93.84V85.48H26.68Zm21.46,0h1.68l-4.44-5.42,4.14-5.1H47.98l-3.7,4.62H41.86V85.48H40.44V96h1.42V91.32h2.4Zm7.34-10.6a6.68,6.68,0,0,0-4.28,1.42l.64,1.06a5.359,5.359,0,0,1,3.5-1.24c1.96,0,2.98.98,2.98,2.78v.64H54.98c-3.02,0-4.06,1.36-4.06,2.98,0,1.82,1.46,3.06,3.84,3.06a3.95,3.95,0,0,0,3.62-1.74V96h1.36V89.48C59.74,86.76,58.2,85.4,55.48,85.4Zm-.5,9.58c-1.68,0-2.66-.76-2.66-1.98,0-1.08.66-1.88,2.7-1.88h3.3v1.72A3.366,3.366,0,0,1,54.98,94.98Zm9.44-9.5-.18,3.76c-.14,2.78-.3,5.6-2.04,5.6a2.57,2.57,0,0,1-.5-.08l-.1,1.22a3.976,3.976,0,0,0,1.02.16c2.26,0,2.72-3.12,2.9-6.8l.14-2.6H70.7V96h1.42V85.48ZM80.68,89.2l-3.1-.04V85.48H76.16V96l4.24.02c2.8.04,4.32-1.22,4.32-3.46C84.72,90.4,83.32,89.22,80.68,89.2Zm-.36,5.74-2.74-.04V90.22l2.74.04c1.96.02,2.96.74,2.96,2.3C83.28,94.14,82.26,94.96,80.32,94.94ZM87.42,96h1.42V91.36h6.62V96h1.42V85.48H95.46v4.66H88.84V85.48H87.42Zm17.84.1a5.35,5.35,0,1,0-5.36-5.36A5.175,5.175,0,0,0,105.26,96.1Zm0-1.26a4.105,4.105,0,1,1,3.9-4.1A3.852,3.852,0,0,1,105.26,94.84Zm17.6-4.1a5.013,5.013,0,0,0-5.1-5.34,5.067,5.067,0,0,0-5.14,5.34,5.562,5.562,0,0,0,9.58,3.64l-.8-.92a4.147,4.147,0,0,1-3.22,1.38,3.894,3.894,0,0,1-4.14-3.66h8.8C122.84,91.02,122.86,90.86,122.86,90.74Zm-5.1-4.12a3.659,3.659,0,0,1,3.74,3.5h-7.46A3.654,3.654,0,0,1,117.76,86.62Zm23.92-1.14-4.54,7.58-4.46-7.58h-1.44V96h1.3V87.66l4.26,7.06h.64l4.26-7.04V96H143V85.48Zm14.58,5.26a5.013,5.013,0,0,0-5.1-5.34,5.067,5.067,0,0,0-5.14,5.34,5.562,5.562,0,0,0,9.58,3.64l-.8-.92a4.147,4.147,0,0,1-3.22,1.38,3.894,3.894,0,0,1-4.14-3.66h8.8C156.24,91.02,156.26,90.86,156.26,90.74Zm-5.1-4.12a3.659,3.659,0,0,1,3.74,3.5h-7.46A3.654,3.654,0,0,1,151.16,86.62ZM163.8,96.1a4.638,4.638,0,0,0,4.12-2.08l-1.06-.72a3.558,3.558,0,0,1-3.06,1.54,4.1,4.1,0,0,1,0-8.2,3.576,3.576,0,0,1,3.06,1.56l1.06-.72a4.6,4.6,0,0,0-4.12-2.08,5.35,5.35,0,1,0,0,10.7Zm14.06-10.62h-9.38v1.26h3.98V96h1.42V86.74h3.98Zm5.92,10.62a5.35,5.35,0,1,0-5.36-5.36A5.175,5.175,0,0,0,183.78,96.1Zm0-1.26a4.105,4.105,0,1,1,3.9-4.1A3.852,3.852,0,0,1,183.78,94.84Zm20.32-4.28a2.437,2.437,0,0,0,1.78-2.38c0-1.74-1.46-2.7-3.84-2.7H197.4V96h4.78c2.74,0,4.06-1.04,4.06-2.86A2.429,2.429,0,0,0,204.1,90.56Zm-5.32-3.96h3.16c1.62,0,2.52.58,2.52,1.76s-.9,1.8-2.52,1.8h-3.16Zm3.34,8.28h-3.34V91.22h3.48c1.78,0,2.58.58,2.58,1.84S203.9,94.88,202.12,94.88ZM216.62,82l-.2,6c-.18,4.72-.86,6.76-2.64,6.76a2.694,2.694,0,0,1-.66-.08L213,96a4.633,4.633,0,0,0,1.12.14c2.54,0,3.42-2.58,3.62-8.18l.16-4.68h6.76V96h1.46V82Zm18.22,14.1a5.35,5.35,0,1,0-5.36-5.36A5.175,5.175,0,0,0,234.84,96.1Zm0-1.26a4.105,4.105,0,1,1,3.9-4.1A3.852,3.852,0,0,1,234.84,94.84Zm12.78,1.26a4.638,4.638,0,0,0,4.12-2.08l-1.06-.72a3.558,3.558,0,0,1-3.06,1.54,4.1,4.1,0,0,1,0-8.2,3.576,3.576,0,0,1,3.06,1.56l1.06-.72a4.6,4.6,0,0,0-4.12-2.08,5.35,5.35,0,1,0,0,10.7Zm5.9-4.9h5.24V89.96h-5.24ZM13,120h1.56l-6.4-14H6.7L.3,120H1.84l1.68-3.74h7.8Zm-8.94-4.94,3.36-7.52,3.36,7.52ZM16.9,120h1.42v-4.64h6.62V120h1.42V109.48H24.94v4.66H18.32v-4.66H16.9Zm22.12-1.24v-9.28H31.26L31.12,113c-.14,2.84-.4,5.66-1.96,5.76h-.6v3.78H29.9V120h9.42v2.54h1.34v-3.78Zm-6.6-5.68.12-2.34H37.6v8.02H31.04C32.1,117.96,32.32,115.48,32.42,113.08ZM55.88,120h1.7l-3.78-5.4,3.48-5.12H55.74l-3.1,4.62H50.36v-4.62H48.94v4.62H46.66l-3.08-4.62H42.04l3.48,5.1L41.74,120h1.7l3.22-4.68h2.28V120h1.42v-4.68h2.28Zm12.9-5.26a5.013,5.013,0,0,0-5.1-5.34,5.067,5.067,0,0,0-5.14,5.34,5.562,5.562,0,0,0,9.58,3.64l-.8-.92a4.147,4.147,0,0,1-3.22,1.38,3.894,3.894,0,0,1-4.14-3.66h8.8C68.76,115.02,68.78,114.86,68.78,114.74Zm-5.1-4.12a3.659,3.659,0,0,1,3.74,3.5H59.96A3.654,3.654,0,0,1,63.68,110.62Zm8.92-1.14-.18,3.76c-.14,2.78-.3,5.6-2.04,5.6a2.57,2.57,0,0,1-.5-.08l-.1,1.22a3.976,3.976,0,0,0,1.02.16c2.26,0,2.72-3.12,2.9-6.8l.14-2.6h5.04V120H80.3V109.48Zm20.96,5.26a5.013,5.013,0,0,0-5.1-5.34,5.067,5.067,0,0,0-5.14,5.34,5.562,5.562,0,0,0,9.58,3.64l-.8-.92a4.147,4.147,0,0,1-3.22,1.38,3.894,3.894,0,0,1-4.14-3.66h8.8C93.54,115.02,93.56,114.86,93.56,114.74Zm-5.1-4.12a3.659,3.659,0,0,1,3.74,3.5H84.74A3.654,3.654,0,0,1,88.46,110.62Zm12.64,9.48a4.638,4.638,0,0,0,4.12-2.08l-1.06-.72a3.558,3.558,0,0,1-3.06,1.54,4.1,4.1,0,0,1,0-8.2,3.576,3.576,0,0,1,3.06,1.56l1.06-.72a4.6,4.6,0,0,0-4.12-2.08,5.35,5.35,0,1,0,0,10.7Zm15.9-5.36a5.013,5.013,0,0,0-5.1-5.34,5.067,5.067,0,0,0-5.14,5.34,5.562,5.562,0,0,0,9.58,3.64l-.8-.92a4.147,4.147,0,0,1-3.22,1.38,3.894,3.894,0,0,1-4.14-3.66h8.8C116.98,115.02,117,114.86,117,114.74Zm-5.1-4.12a3.659,3.659,0,0,1,3.74,3.5h-7.46A3.654,3.654,0,0,1,111.9,110.62Zm8.36,7.3A1.047,1.047,0,0,0,119.2,119a1.011,1.011,0,0,0,.72,1.02l-.68,2.9h.96l.84-2.76a3.263,3.263,0,0,0,.28-1.16A1.047,1.047,0,0,0,120.26,117.92Zm16.8-8.44h-7.44V120h1.42v-9.26h6.02Zm10.04,9.28v-9.28h-7.76L139.2,113c-.14,2.84-.4,5.66-1.96,5.76h-.6v3.78h1.34V120h9.42v2.54h1.34v-3.78Zm-6.6-5.68.12-2.34h5.06v8.02h-6.56C140.18,117.96,140.4,115.48,140.5,113.08Zm20.22,1.66a5.013,5.013,0,0,0-5.1-5.34,5.067,5.067,0,0,0-5.14,5.34,5.562,5.562,0,0,0,9.58,3.64l-.8-.92a4.147,4.147,0,0,1-3.22,1.38,3.894,3.894,0,0,1-4.14-3.66h8.8C160.7,115.02,160.72,114.86,160.72,114.74Zm-5.1-4.12a3.659,3.659,0,0,1,3.74,3.5H151.9A3.654,3.654,0,0,1,155.62,110.62Zm20.18,3.94a2.437,2.437,0,0,0,1.78-2.38c0-1.74-1.46-2.7-3.84-2.7H169.1V120h4.78c2.74,0,4.06-1.04,4.06-2.86A2.429,2.429,0,0,0,175.8,114.56Zm-5.32-3.96h3.16c1.62,0,2.52.58,2.52,1.76s-.9,1.8-2.52,1.8h-3.16Zm3.34,8.28h-3.34v-3.66h3.48c1.78,0,2.58.58,2.58,1.84S175.6,118.88,173.82,118.88Zm11.86-5.68-3-.04v-3.68h-1.42V120l4.16.02c2.78.04,4.32-1.22,4.32-3.46C189.74,114.4,188.32,113.22,185.68,113.2Zm5.82,6.8h1.42V109.48H191.5Zm-6.16-1.06-2.66-.04v-4.68l2.66.04c1.96.02,2.96.74,2.96,2.3C188.3,118.14,187.28,118.96,185.34,118.94Zm23.56-4.38a2.437,2.437,0,0,0,1.78-2.38c0-1.74-1.46-2.7-3.84-2.7H202.2V120h4.78c2.74,0,4.06-1.04,4.06-2.86A2.429,2.429,0,0,0,208.9,114.56Zm-5.32-3.96h3.16c1.62,0,2.52.58,2.52,1.76s-.9,1.8-2.52,1.8h-3.16Zm3.34,8.28h-3.34v-3.66h3.48c1.78,0,2.58.58,2.58,1.84S208.7,118.88,206.92,118.88Zm11.84,1.22a4.638,4.638,0,0,0,4.12-2.08l-1.06-.72a3.558,3.558,0,0,1-3.06,1.54,4.1,4.1,0,0,1,0-8.2,3.576,3.576,0,0,1,3.06,1.56l1.06-.72a4.6,4.6,0,0,0-4.12-2.08,5.35,5.35,0,1,0,0,10.7Zm14.06-10.62h-9.38v1.26h3.98V120h1.42v-9.26h3.98Zm7.48-.08a4.582,4.582,0,0,0-4.06,2.16v-2.08h-1.36v14.4h1.42v-5.86a4.6,4.6,0,0,0,4,2.08,5.351,5.351,0,0,0,0-10.7Zm-.1,9.44a4.1,4.1,0,1,1,3.92-4.1A3.852,3.852,0,0,1,240.2,118.84Zm17.62-4.1a5.013,5.013,0,0,0-5.1-5.34,5.067,5.067,0,0,0-5.14,5.34,5.562,5.562,0,0,0,9.58,3.64l-.8-.92a4.147,4.147,0,0,1-3.22,1.38,3.894,3.894,0,0,1-4.14-3.66h8.8C257.8,115.02,257.82,114.86,257.82,114.74Zm-5.1-4.12a3.659,3.659,0,0,1,3.74,3.5H249A3.654,3.654,0,0,1,252.72,110.62Zm15.18-1.14h-9.38v1.26h3.98V120h1.42v-9.26h3.98ZM269.96,120h1.28l7-8.36V120h1.42V109.48H278.4l-7.02,8.36v-8.36h-1.42Zm21.16-10.52h-9.38v1.26h3.98V120h1.42v-9.26h3.98Zm10.8,5.26a5.013,5.013,0,0,0-5.1-5.34,5.067,5.067,0,0,0-5.14,5.34,5.562,5.562,0,0,0,9.58,3.64l-.8-.92a4.147,4.147,0,0,1-3.22,1.38,3.894,3.894,0,0,1-4.14-3.66h8.8C301.9,115.02,301.92,114.86,301.92,114.74Zm-5.1-4.12a3.659,3.659,0,0,1,3.74,3.5H293.1A3.654,3.654,0,0,1,296.82,110.62ZM10.64,142.76v-9.28H2.88L2.74,137c-.14,2.84-.4,5.66-1.96,5.76H.18v3.78H1.52V144h9.42v2.54h1.34v-3.78Zm-6.6-5.68.12-2.34H9.22v8.02H2.66C3.72,141.96,3.94,139.48,4.04,137.08Zm16.42-3.68a4.582,4.582,0,0,0-4.06,2.16v-2.08H15.04v14.4h1.42v-5.86a4.6,4.6,0,0,0,4,2.08,5.351,5.351,0,0,0,0-10.7Zm-.1,9.44a4.1,4.1,0,1,1,3.92-4.1A3.852,3.852,0,0,1,20.36,142.84ZM36,133.48l-3.96,8.94-3.96-8.94H26.6l4.7,10.5L30.84,145c-.6,1.32-1.24,1.76-2.18,1.76a2.627,2.627,0,0,1-1.92-.8l-.66,1.06a3.6,3.6,0,0,0,2.56.96c1.5,0,2.62-.66,3.5-2.72l5.26-11.78ZM51.48,144h1.7l-3.78-5.4,3.48-5.12H51.34l-3.1,4.62H45.96v-4.62H44.54v4.62H42.26l-3.08-4.62H37.64l3.48,5.1L37.34,144h1.7l3.22-4.68h2.28V144h1.42v-4.68h2.28Zm12.9-5.26a5.013,5.013,0,0,0-5.1-5.34,5.067,5.067,0,0,0-5.14,5.34,5.562,5.562,0,0,0,9.58,3.64l-.8-.92a4.147,4.147,0,0,1-3.22,1.38,3.894,3.894,0,0,1-4.14-3.66h8.8C64.36,139.02,64.38,138.86,64.38,138.74Zm-5.1-4.12a3.659,3.659,0,0,1,3.74,3.5H55.56A3.654,3.654,0,0,1,59.28,134.62Zm8.92-1.14-.18,3.76c-.14,2.78-.3,5.6-2.04,5.6a2.57,2.57,0,0,1-.5-.08l-.1,1.22a3.975,3.975,0,0,0,1.02.16c2.26,0,2.72-3.12,2.9-6.8l.14-2.6h5.04V144H75.9V133.48Zm20.78-.08a5.055,5.055,0,0,0-5.2,4.62H81.36v-4.54H79.94V144h1.42v-4.68h2.4a5.242,5.242,0,1,0,5.22-5.92Zm0,9.46a4.121,4.121,0,1,1,3.82-4.12A3.826,3.826,0,0,1,88.98,142.86Zm13.36-9.12a4.777,4.777,0,0,0-4.4,2.6c.14-3.36,1.5-4.86,4.48-5.52l4.44-1.02-.24-1.3-4.72,1.08c-3.58.84-5.32,3.04-5.32,7.62,0,4.28,1.96,6.92,5.5,6.92a5.024,5.024,0,0,0,5.3-5.24A4.867,4.867,0,0,0,102.34,133.74Zm-.22,9.2a3.778,3.778,0,0,1-3.84-4.02,3.831,3.831,0,1,1,7.66,0A3.763,3.763,0,0,1,102.12,142.94Zm8.3,1.06h1.42v-4.64h6.62V144h1.42V133.48h-1.42v4.66h-6.62v-4.66h-1.42Zm17.92-6.8-3-.04v-3.68h-1.42V144l4.16.02c2.78.04,4.32-1.22,4.32-3.46C132.4,138.4,130.98,137.22,128.34,137.2Zm5.82,6.8h1.42V133.48h-1.42ZM128,142.94l-2.66-.04v-4.68l2.66.04c1.96.02,2.96.74,2.96,2.3C130.96,142.14,129.94,142.96,128,142.94ZM147.82,144l-4.2-5.4,3.96-5.12h-1.56l-3.16,4.12-3.16-4.12h-1.6l3.96,5.12L137.9,144h1.6l3.36-4.4,3.34,4.4Zm8.46-10.52-.18,3.76c-.14,2.78-.3,5.6-2.04,5.6a2.57,2.57,0,0,1-.5-.08l-.1,1.22a3.975,3.975,0,0,0,1.02.16c2.26,0,2.72-3.12,2.9-6.8l.14-2.6h5.04V144h1.42V133.48Zm20.78-.08a5.056,5.056,0,0,0-5.2,4.62h-2.42v-4.54h-1.42V144h1.42v-4.68h2.4a5.242,5.242,0,1,0,5.22-5.92Zm0,9.46a4.121,4.121,0,1,1,3.82-4.12A3.826,3.826,0,0,1,177.06,142.86Zm16.82-.1v-9.28h-7.76l-.14,3.52c-.14,2.84-.4,5.66-1.96,5.76h-.6v3.78h1.34V144h9.42v2.54h1.34v-3.78Zm-6.6-5.68.12-2.34h5.06v8.02H185.9C186.96,141.96,187.18,139.48,187.28,137.08Zm20.22,1.66a5.013,5.013,0,0,0-5.1-5.34,5.067,5.067,0,0,0-5.14,5.34,5.562,5.562,0,0,0,9.58,3.64l-.8-.92a4.147,4.147,0,0,1-3.22,1.38,3.894,3.894,0,0,1-4.14-3.66h8.8C207.48,139.02,207.5,138.86,207.5,138.74Zm-5.1-4.12a3.659,3.659,0,0,1,3.74,3.5h-7.46A3.654,3.654,0,0,1,202.4,134.62Zm13.02-2.64c1.78,0,2.96-.92,3-2.6H217.4a1.791,1.791,0,0,1-1.98,1.72,1.762,1.762,0,0,1-1.96-1.72h-1.02C212.48,131.06,213.64,131.98,215.42,131.98ZM210.64,144h1.28l7-8.36V144h1.42V133.48h-1.26l-7.02,8.36v-8.36h-1.42Zm25.7-5.44a2.437,2.437,0,0,0,1.78-2.38c0-1.74-1.46-2.7-3.84-2.7h-4.64V144h4.78c2.74,0,4.06-1.04,4.06-2.86A2.429,2.429,0,0,0,236.34,138.56Zm-5.32-3.96h3.16c1.62,0,2.52.58,2.52,1.76s-.9,1.8-2.52,1.8h-3.16Zm3.34,8.28h-3.34v-3.66h3.48c1.78,0,2.58.58,2.58,1.84S236.14,142.88,234.36,142.88Zm11.84,1.22a4.638,4.638,0,0,0,4.12-2.08l-1.06-.72a3.558,3.558,0,0,1-3.06,1.54,4.1,4.1,0,0,1,0-8.2,3.576,3.576,0,0,1,3.06,1.56l1.06-.72a4.6,4.6,0,0,0-4.12-2.08,5.35,5.35,0,1,0,0,10.7Zm15.9-5.36a5.013,5.013,0,0,0-5.1-5.34,5.067,5.067,0,0,0-5.14,5.34,5.562,5.562,0,0,0,9.58,3.64l-.8-.92a4.147,4.147,0,0,1-3.22,1.38,3.894,3.894,0,0,1-4.14-3.66h8.8C262.08,139.02,262.1,138.86,262.1,138.74Zm-5.1-4.12a3.659,3.659,0,0,1,3.74,3.5h-7.46A3.654,3.654,0,0,1,257,134.62ZM273.14,144l-4.2-5.4,3.96-5.12h-1.56l-3.16,4.12-3.16-4.12h-1.6l3.96,5.12-4.16,5.4h1.6l3.36-4.4,3.34,4.4ZM8.72,162.56a2.437,2.437,0,0,0,1.78-2.38c0-1.74-1.46-2.7-3.84-2.7H2.02V168H6.8c2.74,0,4.06-1.04,4.06-2.86A2.429,2.429,0,0,0,8.72,162.56ZM3.4,158.6H6.56c1.62,0,2.52.58,2.52,1.76s-.9,1.8-2.52,1.8H3.4Zm3.34,8.28H3.4v-3.66H6.88c1.78,0,2.58.58,2.58,1.84S8.52,166.88,6.74,166.88Zm11.78,1.22a5.35,5.35,0,0,0,0-10.7,5.35,5.35,0,1,0,0,10.7Zm0-1.26a4.105,4.105,0,1,1,3.9-4.1A3.852,3.852,0,0,1,18.52,166.84Zm13.42-4.32a2.579,2.579,0,0,0,2.04-2.34c0-1.72-1.84-2.82-4.24-2.82a8.347,8.347,0,0,0-3.9.98l.4,1.1a7.357,7.357,0,0,1,3.36-.86c1.68,0,2.92.64,2.92,1.8,0,1.04-1.08,1.66-2.62,1.66H28.18v1.04h1.8c1.76,0,2.84.66,2.84,1.78,0,1.28-1.42,2.04-3.32,2.04a6.181,6.181,0,0,1-3.62-1.14l-.48,1.06a6.951,6.951,0,0,0,4.16,1.3c2.62,0,4.72-1.24,4.72-3.14C34.28,163.74,33.42,162.86,31.94,162.52Zm10.98-5.12a4.582,4.582,0,0,0-4.06,2.16v-2.08H37.5v14.4h1.42v-5.86a4.6,4.6,0,0,0,4,2.08,5.351,5.351,0,0,0,0-10.7Zm-.1,9.44a4.1,4.1,0,1,1,3.92-4.1A3.852,3.852,0,0,1,42.82,166.84Zm11.96-9.44a6.68,6.68,0,0,0-4.28,1.42l.64,1.06a5.359,5.359,0,0,1,3.5-1.24c1.96,0,2.98.98,2.98,2.78v.64H54.28c-3.02,0-4.06,1.36-4.06,2.98,0,1.82,1.46,3.06,3.84,3.06a3.95,3.95,0,0,0,3.62-1.74V168h1.36v-6.52C59.04,158.76,57.5,157.4,54.78,157.4Zm-.5,9.58c-1.68,0-2.66-.76-2.66-1.98,0-1.08.66-1.88,2.7-1.88h3.3v1.72A3.366,3.366,0,0,1,54.28,166.98Zm12.94,1.12a4.638,4.638,0,0,0,4.12-2.08l-1.06-.72a3.558,3.558,0,0,1-3.06,1.54,4.1,4.1,0,0,1,0-8.2,3.576,3.576,0,0,1,3.06,1.56l1.06-.72a4.6,4.6,0,0,0-4.12-2.08,5.35,5.35,0,1,0,0,10.7Zm14.06-10.62H71.9v1.26h3.98V168H77.3v-9.26h3.98ZM87.2,168.1a5.35,5.35,0,1,0-5.36-5.36A5.175,5.175,0,0,0,87.2,168.1Zm0-1.26a4.105,4.105,0,1,1,3.9-4.1A3.852,3.852,0,0,1,87.2,166.84Zm15.08-4.28a2.437,2.437,0,0,0,1.78-2.38c0-1.74-1.46-2.7-3.84-2.7H95.58V168h4.78c2.74,0,4.06-1.04,4.06-2.86A2.429,2.429,0,0,0,102.28,162.56Zm-5.32-3.96h3.16c1.62,0,2.52.58,2.52,1.76s-.9,1.8-2.52,1.8H96.96Zm3.34,8.28H96.96v-3.66h3.48c1.78,0,2.58.58,2.58,1.84S102.08,166.88,100.3,166.88ZM112.98,168h1.28l7-8.36V168h1.42V157.48h-1.26l-7.02,8.36v-8.36h-1.42Zm18.66-5.48a2.579,2.579,0,0,0,2.04-2.34c0-1.72-1.84-2.82-4.24-2.82a8.347,8.347,0,0,0-3.9.98l.4,1.1a7.357,7.357,0,0,1,3.36-.86c1.68,0,2.92.64,2.92,1.8,0,1.04-1.08,1.66-2.62,1.66h-1.72v1.04h1.8c1.76,0,2.84.66,2.84,1.78,0,1.28-1.42,2.04-3.32,2.04a6.181,6.181,0,0,1-3.62-1.14l-.48,1.06a6.951,6.951,0,0,0,4.16,1.3c2.62,0,4.72-1.24,4.72-3.14C133.98,163.74,133.12,162.86,131.64,162.52Zm16.22-5.12a4.582,4.582,0,0,0-4.06,2.16v-2.08h-1.36v14.4h1.42v-5.86a4.6,4.6,0,0,0,4,2.08,5.351,5.351,0,0,0,0-10.7Zm-.1,9.44a4.1,4.1,0,1,1,3.92-4.1A3.852,3.852,0,0,1,147.76,166.84Zm11.96-9.44a6.68,6.68,0,0,0-4.28,1.42l.64,1.06a5.359,5.359,0,0,1,3.5-1.24c1.96,0,2.98.98,2.98,2.78v.64h-3.34c-3.02,0-4.06,1.36-4.06,2.98,0,1.82,1.46,3.06,3.84,3.06a3.95,3.95,0,0,0,3.62-1.74V168h1.36v-6.52C163.98,158.76,162.44,157.4,159.72,157.4Zm-.5,9.58c-1.68,0-2.66-.76-2.66-1.98,0-1.08.66-1.88,2.7-1.88h3.3v1.72A3.366,3.366,0,0,1,159.22,166.98Zm13.44-4.46a2.579,2.579,0,0,0,2.04-2.34c0-1.72-1.84-2.82-4.24-2.82a8.347,8.347,0,0,0-3.9.98l.4,1.1a7.357,7.357,0,0,1,3.36-.86c1.68,0,2.92.64,2.92,1.8,0,1.04-1.08,1.66-2.62,1.66H168.9v1.04h1.8c1.76,0,2.84.66,2.84,1.78,0,1.28-1.42,2.04-3.32,2.04a6.181,6.181,0,0,1-3.62-1.14l-.48,1.06a6.951,6.951,0,0,0,4.16,1.3c2.62,0,4.72-1.24,4.72-3.14C175,163.74,174.14,162.86,172.66,162.52Zm5.56,5.48h1.42v-4.64h6.62V168h1.42V157.48h-1.42v4.66h-6.62v-4.66h-1.42Zm17.92-6.8-3-.04v-3.68h-1.42V168l4.16.02c2.78.04,4.32-1.22,4.32-3.46C200.2,162.4,198.78,161.22,196.14,161.2Zm5.82,6.8h1.42V157.48h-1.42Zm-6.16-1.06-2.66-.04v-4.68l2.66.04c1.96.02,2.96.74,2.96,2.3C198.76,166.14,197.74,166.96,195.8,166.94ZM215.62,168l-4.2-5.4,3.96-5.12h-1.56l-3.16,4.12-3.16-4.12h-1.6l3.96,5.12L205.7,168h1.6l3.36-4.4L214,168Zm18-10.52-4.54,7.58-4.46-7.58h-1.44V168h1.3v-8.34l4.26,7.06h.64l4.26-7.04V168h1.3V157.48Zm14.58,5.26a5.013,5.013,0,0,0-5.1-5.34,5.067,5.067,0,0,0-5.14,5.34,5.562,5.562,0,0,0,9.58,3.64l-.8-.92a4.147,4.147,0,0,1-3.22,1.38,3.894,3.894,0,0,1-4.14-3.66h8.8C248.18,163.02,248.2,162.86,248.2,162.74Zm-5.1-4.12a3.659,3.659,0,0,1,3.74,3.5h-7.46A3.654,3.654,0,0,1,243.1,158.62Zm12.64,9.48a4.638,4.638,0,0,0,4.12-2.08l-1.06-.72a3.558,3.558,0,0,1-3.06,1.54,4.1,4.1,0,0,1,0-8.2,3.576,3.576,0,0,1,3.06,1.56l1.06-.72a4.6,4.6,0,0,0-4.12-2.08,5.35,5.35,0,1,0,0,10.7Zm14.06-10.62h-9.38v1.26h3.98V168h1.42v-9.26h3.98Zm13.76,10.64a6.808,6.808,0,0,0,5.14-2.06l-.94-.94a5.492,5.492,0,0,1-4.14,1.68,5.8,5.8,0,1,1,0-11.6,5.548,5.548,0,0,1,4.14,1.66l.94-.94a6.779,6.779,0,0,0-5.12-2.04,7.123,7.123,0,1,0-.02,14.24ZM302,154v6.24h-8.76V154h-1.48v14h1.48v-6.46H302V168h1.46V154Zm15.08,0h-8.9v14h1.46l-.02-12.72h7.46Zm-1.34,14.1a1.093,1.093,0,0,0,1.08-1.1,1.075,1.075,0,0,0-1.08-1.08,1.059,1.059,0,0,0-1.06,1.08A1.076,1.076,0,0,0,315.74,168.1ZM11.88,202l-5,9.48L2,202H.42L6.1,212.78l-.4.68a2.587,2.587,0,0,1-2.26,1.5,3.642,3.642,0,0,1-1.32-.28l-.42,1.2a4.535,4.535,0,0,0,1.72.38A4.053,4.053,0,0,0,7,213.78L13.36,202Zm8.98,14h1.42v-4.64H28.9V216h1.42V205.48H28.9v4.66H22.28v-4.66H20.86Zm17.12-10.6a6.68,6.68,0,0,0-4.28,1.42l.64,1.06a5.359,5.359,0,0,1,3.5-1.24c1.96,0,2.98.98,2.98,2.78v.64H37.48c-3.02,0-4.06,1.36-4.06,2.98,0,1.82,1.46,3.06,3.84,3.06a3.95,3.95,0,0,0,3.62-1.74V216h1.36v-6.52C42.24,206.76,40.7,205.4,37.98,205.4Zm-.5,9.58c-1.68,0-2.66-.76-2.66-1.98,0-1.08.66-1.88,2.7-1.88h3.3v1.72A3.366,3.366,0,0,1,37.48,214.98Zm12.94,1.12a4.638,4.638,0,0,0,4.12-2.08l-1.06-.72a3.558,3.558,0,0,1-3.06,1.54,4.1,4.1,0,0,1,0-8.2,3.576,3.576,0,0,1,3.06,1.56l1.06-.72a4.6,4.6,0,0,0-4.12-2.08,5.35,5.35,0,1,0,0,10.7Zm21.32-5.36a5.013,5.013,0,0,0-5.1-5.34,5.067,5.067,0,0,0-5.14,5.34,5.562,5.562,0,0,0,9.58,3.64l-.8-.92a4.147,4.147,0,0,1-3.22,1.38,3.894,3.894,0,0,1-4.14-3.66h8.8C71.72,211.02,71.74,210.86,71.74,210.74Zm-5.1-4.12a3.659,3.659,0,0,1,3.74,3.5H62.92A3.654,3.654,0,0,1,66.64,206.62Zm12.64,9.48a4.638,4.638,0,0,0,4.12-2.08l-1.06-.72a3.558,3.558,0,0,1-3.06,1.54,4.1,4.1,0,0,1,0-8.2,3.576,3.576,0,0,1,3.06,1.56l1.06-.72a4.6,4.6,0,0,0-4.12-2.08,5.35,5.35,0,1,0,0,10.7Zm14.06-10.62H83.96v1.26h3.98V216h1.42v-9.26h3.98Zm6.58,3.72-3.1-.04v-3.68H95.4V216l4.24.02c2.8.04,4.32-1.22,4.32-3.46C103.96,210.4,102.56,209.22,99.92,209.2Zm-.36,5.74-2.74-.04v-4.68l2.74.04c1.96.02,2.96.74,2.96,2.3C102.52,214.14,101.5,214.96,99.56,214.94ZM119.6,216h1.68l-4.44-5.42,4.14-5.1h-1.54l-3.7,4.62h-2.42v-4.62H111.9V216h1.42v-4.68h2.4Zm4.82-10.52-.18,3.76c-.14,2.78-.3,5.6-2.04,5.6a2.57,2.57,0,0,1-.5-.08l-.1,1.22a3.975,3.975,0,0,0,1.02.16c2.26,0,2.72-3.12,2.9-6.8l.14-2.6h5.04V216h1.42V205.48Zm15.36-.08a6.68,6.68,0,0,0-4.28,1.42l.64,1.06a5.359,5.359,0,0,1,3.5-1.24c1.96,0,2.98.98,2.98,2.78v.64h-3.34c-3.02,0-4.06,1.36-4.06,2.98,0,1.82,1.46,3.06,3.84,3.06a3.95,3.95,0,0,0,3.62-1.74V216h1.36v-6.52C144.04,206.76,142.5,205.4,139.78,205.4Zm-.5,9.58c-1.68,0-2.66-.76-2.66-1.98,0-1.08.66-1.88,2.7-1.88h3.3v1.72A3.366,3.366,0,0,1,139.28,214.98Zm12.94,1.12a4.638,4.638,0,0,0,4.12-2.08l-1.06-.72a3.558,3.558,0,0,1-3.06,1.54,4.1,4.1,0,0,1,0-8.2,3.576,3.576,0,0,1,3.06,1.56l1.06-.72a4.6,4.6,0,0,0-4.12-2.08,5.35,5.35,0,1,0,0,10.7Zm11.08,0a4.638,4.638,0,0,0,4.12-2.08l-1.06-.72a3.558,3.558,0,0,1-3.06,1.54,4.1,4.1,0,0,1,0-8.2,3.576,3.576,0,0,1,3.06,1.56l1.06-.72a4.6,4.6,0,0,0-4.12-2.08,5.35,5.35,0,1,0,0,10.7Zm11.28-6.9-3-.04v-3.68h-1.42V216l4.16.02c2.78.04,4.32-1.22,4.32-3.46C178.64,210.4,177.22,209.22,174.58,209.2Zm5.82,6.8h1.42V205.48H180.4Zm-6.16-1.06-2.66-.04v-4.68l2.66.04c1.96.02,2.96.74,2.96,2.3C177.2,214.14,176.18,214.96,174.24,214.94Zm16.86-9.46V216h1.42v-9.26h6.6V216h1.42V205.48Zm17.82,10.62a5.35,5.35,0,1,0-5.36-5.36A5.175,5.175,0,0,0,208.92,216.1Zm0-1.26a4.105,4.105,0,1,1,3.9-4.1A3.852,3.852,0,0,1,208.92,214.84ZM222.54,216h1.28l7-8.36V216h1.42V205.48h-1.26l-7.02,8.36v-8.36h-1.42Zm18.66-5.48a2.579,2.579,0,0,0,2.04-2.34c0-1.72-1.84-2.82-4.24-2.82a8.347,8.347,0,0,0-3.9.98l.4,1.1a7.357,7.357,0,0,1,3.36-.86c1.68,0,2.92.64,2.92,1.8,0,1.04-1.08,1.66-2.62,1.66h-1.72v1.04h1.8c1.76,0,2.84.66,2.84,1.78,0,1.28-1.42,2.04-3.32,2.04a6.181,6.181,0,0,1-3.62-1.14l-.48,1.06a6.951,6.951,0,0,0,4.16,1.3c2.62,0,4.72-1.24,4.72-3.14C243.54,211.74,242.68,210.86,241.2,210.52Zm13.1-5.04-3.96,8.94-3.96-8.94H244.9l4.7,10.5-.46,1.02c-.6,1.32-1.24,1.76-2.18,1.76a2.627,2.627,0,0,1-1.92-.8l-.66,1.06a3.6,3.6,0,0,0,2.56.96c1.5,0,2.62-.66,3.5-2.72l5.26-11.78Zm10.14,0v5a8.667,8.667,0,0,1-3.32.78c-1.76,0-2.86-.8-2.86-2.4v-3.38h-1.42v3.46c0,2.38,1.56,3.48,4.02,3.48a8.929,8.929,0,0,0,3.58-.8V216h1.42V205.48Zm14.68,5.26a5.013,5.013,0,0,0-5.1-5.34,5.067,5.067,0,0,0-5.14,5.34,5.562,5.562,0,0,0,9.58,3.64l-.8-.92a4.147,4.147,0,0,1-3.22,1.38,3.894,3.894,0,0,1-4.14-3.66h8.8C279.1,211.02,279.12,210.86,279.12,210.74Zm-5.1-4.12a3.659,3.659,0,0,1,3.74,3.5H270.3A3.654,3.654,0,0,1,274.02,206.62Zm8.24,9.38h1.42v-4.64h6.62V216h1.42V205.48H290.3v4.66h-6.62v-4.66h-1.42Zm13.5,0h1.28l7-8.36V216h1.42V205.48H304.2l-7.02,8.36v-8.36h-1.42Zm22.8-10.6a5.056,5.056,0,0,0-5.2,4.62h-2.42v-4.54h-1.42V216h1.42v-4.68h2.4a5.242,5.242,0,1,0,5.22-5.92Zm0,9.46a4.121,4.121,0,1,1,3.82-4.12A3.826,3.826,0,0,1,318.56,214.86ZM2.36,240H8.08c3.46,0,5.38-1.48,5.38-4.18,0-2.6-1.76-3.98-5.06-3.98H3.82v-4.58H12.6V226H2.36Zm1.46-1.18v-5.8H8.06c2.62,0,3.92.92,3.92,2.86s-1.34,2.94-3.92,2.94ZM16.56,240h1.28l7-8.36V240h1.42V229.48H25l-7.02,8.36v-8.36H16.56Zm18.86-10.26a4.777,4.777,0,0,0-4.4,2.6c.14-3.36,1.5-4.86,4.48-5.52l4.44-1.02-.24-1.3-4.72,1.08c-3.58.84-5.32,3.04-5.32,7.62,0,4.28,1.96,6.92,5.5,6.92a5.024,5.024,0,0,0,5.3-5.24A4.867,4.867,0,0,0,35.42,229.74Zm-.22,9.2a3.778,3.778,0,0,1-3.84-4.02,3.831,3.831,0,1,1,7.66,0A3.763,3.763,0,0,1,35.2,238.94Zm9.14-9.46-.18,3.76c-.14,2.78-.3,5.6-2.04,5.6a2.57,2.57,0,0,1-.5-.08l-.1,1.22a3.975,3.975,0,0,0,1.02.16c2.26,0,2.72-3.12,2.9-6.8l.14-2.6h5.04V240h1.42V229.48ZM56.08,240h1.28l7-8.36V240h1.42V229.48H64.52l-7.02,8.36v-8.36H56.08Zm13.76,0h1.28l7-8.36V240h1.42V229.48H78.28l-7.02,8.36v-8.36H69.84Zm27.62-1.24v-9.28H89.7L89.56,233c-.14,2.84-.4,5.66-1.96,5.76H87v3.78h1.34V240h9.42v2.54H99.1v-3.78Zm-6.6-5.68.12-2.34h5.06v8.02H89.48C90.54,237.96,90.76,235.48,90.86,233.08Zm11.9-3.6-.18,3.76c-.14,2.78-.3,5.6-2.04,5.6a2.57,2.57,0,0,1-.5-.08l-.1,1.22a3.975,3.975,0,0,0,1.02.16c2.26,0,2.72-3.12,2.9-6.8l.14-2.6h5.04V240h1.42V229.48Zm15.4,0c-2.72,0-4.48,1.2-4.48,3.6a3.138,3.138,0,0,0,2.54,3.24L113.6,240h1.54l2.44-3.48h3.7V240h1.3V229.48Zm-3.04,3.64c0-1.68,1.12-2.38,3.08-2.38h3.08v4.72H118.1C116.14,235.46,115.12,234.72,115.12,233.12Zm22.16-3.72a4.582,4.582,0,0,0-4.06,2.16v-2.08h-1.36v14.4h1.42v-5.86a4.6,4.6,0,0,0,4,2.08,5.351,5.351,0,0,0,0-10.7Zm-.1,9.44a4.1,4.1,0,1,1,3.92-4.1A3.852,3.852,0,0,1,137.18,238.84Zm11.96-9.44a6.68,6.68,0,0,0-4.28,1.42l.64,1.06a5.359,5.359,0,0,1,3.5-1.24c1.96,0,2.98.98,2.98,2.78v.64h-3.34c-3.02,0-4.06,1.36-4.06,2.98,0,1.82,1.46,3.06,3.84,3.06a3.95,3.95,0,0,0,3.62-1.74V240h1.36v-6.52C153.4,230.76,151.86,229.4,149.14,229.4Zm-.5,9.58c-1.68,0-2.66-.76-2.66-1.98,0-1.08.66-1.88,2.7-1.88h3.3v1.72A3.366,3.366,0,0,1,148.64,238.98Zm13.44-4.46a2.579,2.579,0,0,0,2.04-2.34c0-1.72-1.84-2.82-4.24-2.82a8.347,8.347,0,0,0-3.9.98l.4,1.1a7.357,7.357,0,0,1,3.36-.86c1.68,0,2.92.64,2.92,1.8,0,1.04-1.08,1.66-2.62,1.66h-1.72v1.04h1.8c1.76,0,2.84.66,2.84,1.78,0,1.28-1.42,2.04-3.32,2.04a6.181,6.181,0,0,1-3.62-1.14l-.48,1.06a6.951,6.951,0,0,0,4.16,1.3c2.62,0,4.72-1.24,4.72-3.14C164.42,235.74,163.56,234.86,162.08,234.52Zm5.56,5.48h1.42v-4.64h6.62V240h1.42V229.48h-1.42v4.66h-6.62v-4.66h-1.42Zm17.92-6.8-3-.04v-3.68h-1.42V240l4.16.02c2.78.04,4.32-1.22,4.32-3.46C189.62,234.4,188.2,233.22,185.56,233.2Zm5.82,6.8h1.42V229.48h-1.42Zm-6.16-1.06-2.66-.04v-4.68l2.66.04c1.96.02,2.96.74,2.96,2.3C188.18,238.14,187.16,238.96,185.22,238.94ZM205.04,240l-4.2-5.4,3.96-5.12h-1.56l-3.16,4.12-3.16-4.12h-1.6l3.96,5.12-4.16,5.4h1.6l3.36-4.4,3.34,4.4Zm14.26-5.44a2.437,2.437,0,0,0,1.78-2.38c0-1.74-1.46-2.7-3.84-2.7H212.6V240h4.78c2.74,0,4.06-1.04,4.06-2.86A2.429,2.429,0,0,0,219.3,234.56Zm-5.32-3.96h3.16c1.62,0,2.52.58,2.52,1.76s-.9,1.8-2.52,1.8h-3.16Zm3.34,8.28h-3.34v-3.66h3.48c1.78,0,2.58.58,2.58,1.84S219.1,238.88,217.32,238.88Zm11.78,1.22a5.35,5.35,0,1,0-5.36-5.36A5.175,5.175,0,0,0,229.1,240.1Zm0-1.26a4.105,4.105,0,1,1,3.9-4.1A3.852,3.852,0,0,1,229.1,238.84Zm13.42-4.32a2.579,2.579,0,0,0,2.04-2.34c0-1.72-1.84-2.82-4.24-2.82a8.347,8.347,0,0,0-3.9.98l.4,1.1a7.357,7.357,0,0,1,3.36-.86c1.68,0,2.92.64,2.92,1.8,0,1.04-1.08,1.66-2.62,1.66h-1.72v1.04h1.8c1.76,0,2.84.66,2.84,1.78,0,1.28-1.42,2.04-3.32,2.04a6.181,6.181,0,0,1-3.62-1.14l-.48,1.06a6.951,6.951,0,0,0,4.16,1.3c2.62,0,4.72-1.24,4.72-3.14C244.86,235.74,244,234.86,242.52,234.52Zm10.98-5.12a4.582,4.582,0,0,0-4.06,2.16v-2.08h-1.36v14.4h1.42v-5.86a4.6,4.6,0,0,0,4,2.08,5.351,5.351,0,0,0,0-10.7Zm-.1,9.44a4.1,4.1,0,1,1,3.92-4.1A3.852,3.852,0,0,1,253.4,238.84Zm11.96-9.44a6.68,6.68,0,0,0-4.28,1.42l.64,1.06a5.359,5.359,0,0,1,3.5-1.24c1.96,0,2.98.98,2.98,2.78v.64h-3.34c-3.02,0-4.06,1.36-4.06,2.98,0,1.82,1.46,3.06,3.84,3.06a3.95,3.95,0,0,0,3.62-1.74V240h1.36v-6.52C269.62,230.76,268.08,229.4,265.36,229.4Zm-.5,9.58c-1.68,0-2.66-.76-2.66-1.98,0-1.08.66-1.88,2.7-1.88h3.3v1.72A3.366,3.366,0,0,1,264.86,238.98Zm12.94,1.12a4.638,4.638,0,0,0,4.12-2.08l-1.06-.72a3.558,3.558,0,0,1-3.06,1.54,4.1,4.1,0,0,1,0-8.2,3.576,3.576,0,0,1,3.06,1.56l1.06-.72a4.6,4.6,0,0,0-4.12-2.08,5.35,5.35,0,1,0,0,10.7Zm14.06-10.62h-9.38v1.26h3.98V240h1.42v-9.26h3.98Zm5.92,10.62a5.35,5.35,0,1,0-5.36-5.36A5.175,5.175,0,0,0,297.78,240.1Zm0-1.26a4.105,4.105,0,1,1,3.9-4.1A3.852,3.852,0,0,1,297.78,238.84Zm15.08-4.28a2.437,2.437,0,0,0,1.78-2.38c0-1.74-1.46-2.7-3.84-2.7h-4.64V240h4.78c2.74,0,4.06-1.04,4.06-2.86A2.429,2.429,0,0,0,312.86,234.56Zm-5.32-3.96h3.16c1.62,0,2.52.58,2.52,1.76s-.9,1.8-2.52,1.8h-3.16Zm3.34,8.28h-3.34v-3.66h3.48c1.78,0,2.58.58,2.58,1.84S312.66,238.88,310.88,238.88ZM323.56,240h1.28l7-8.36V240h1.42V229.48H332l-7.02,8.36v-8.36h-1.42ZM10.64,262.76v-9.28H2.88L2.74,257c-.14,2.84-.4,5.66-1.96,5.76H.18v3.78H1.52V264h9.42v2.54h1.34v-3.78Zm-6.6-5.68.12-2.34H9.22v8.02H2.66C3.72,261.96,3.94,259.48,4.04,257.08Zm11.9-3.6-.18,3.76c-.14,2.78-.3,5.6-2.04,5.6a2.572,2.572,0,0,1-.5-.08l-.1,1.22a3.977,3.977,0,0,0,1.02.16c2.26,0,2.72-3.12,2.9-6.8l.14-2.6h5.04V264h1.42V253.48Zm15.4,0c-2.72,0-4.48,1.2-4.48,3.6a3.138,3.138,0,0,0,2.54,3.24L26.78,264h1.54l2.44-3.48h3.7V264h1.3V253.48Zm-3.04,3.64c0-1.68,1.12-2.38,3.08-2.38h3.08v4.72H31.28C29.32,259.46,28.3,258.72,28.3,257.12Zm22.16-3.72a4.582,4.582,0,0,0-4.06,2.16v-2.08H45.04v14.4h1.42v-5.86a4.6,4.6,0,0,0,4,2.08,5.351,5.351,0,0,0,0-10.7Zm-.1,9.44a4.1,4.1,0,1,1,3.92-4.1A3.852,3.852,0,0,1,50.36,262.84Zm11.96-9.44a6.68,6.68,0,0,0-4.28,1.42l.64,1.06a5.359,5.359,0,0,1,3.5-1.24c1.96,0,2.98.98,2.98,2.78v.64H61.82c-3.02,0-4.06,1.36-4.06,2.98,0,1.82,1.46,3.06,3.84,3.06a3.95,3.95,0,0,0,3.62-1.74V264h1.36v-6.52C66.58,254.76,65.04,253.4,62.32,253.4Zm-.5,9.58c-1.68,0-2.66-.76-2.66-1.98,0-1.08.66-1.88,2.7-1.88h3.3v1.72A3.366,3.366,0,0,1,61.82,262.98Zm13.44-4.46a2.579,2.579,0,0,0,2.04-2.34c0-1.72-1.84-2.82-4.24-2.82a8.347,8.347,0,0,0-3.9.98l.4,1.1a7.357,7.357,0,0,1,3.36-.86c1.68,0,2.92.64,2.92,1.8,0,1.04-1.08,1.66-2.62,1.66H71.5v1.04h1.8c1.76,0,2.84.66,2.84,1.78,0,1.28-1.42,2.04-3.32,2.04a6.181,6.181,0,0,1-3.62-1.14l-.48,1.06a6.951,6.951,0,0,0,4.16,1.3c2.62,0,4.72-1.24,4.72-3.14C77.6,259.74,76.74,258.86,75.26,258.52ZM80.82,264h1.42v-4.64h6.62V264h1.42V253.48H88.86v4.66H82.24v-4.66H80.82Zm17.92-6.8-3-.04v-3.68H94.32V264l4.16.02c2.78.04,4.32-1.22,4.32-3.46C102.8,258.4,101.38,257.22,98.74,257.2Zm5.82,6.8h1.42V253.48h-1.42Zm-6.16-1.06-2.66-.04v-4.68l2.66.04c1.96.02,2.96.74,2.96,2.3C101.36,262.14,100.34,262.96,98.4,262.94ZM118.22,264l-4.2-5.4,3.96-5.12h-1.56l-3.16,4.12-3.16-4.12h-1.6l3.96,5.12L108.3,264h1.6l3.36-4.4,3.34,4.4Zm15.1-10.52-3.96,8.94-3.96-8.94h-1.48l4.7,10.5-.46,1.02c-.6,1.32-1.24,1.76-2.18,1.76a2.627,2.627,0,0,1-1.92-.8l-.66,1.06a3.6,3.6,0,0,0,2.56.96c1.5,0,2.62-.66,3.5-2.72l5.26-11.78Zm9.04-.08a4.582,4.582,0,0,0-4.06,2.16v-2.08h-1.36v14.4h1.42v-5.86a4.6,4.6,0,0,0,4,2.08,5.351,5.351,0,0,0,0-10.7Zm-.1,9.44a4.1,4.1,0,1,1,3.92-4.1A3.852,3.852,0,0,1,142.26,262.84ZM155,264.1a5.35,5.35,0,1,0-5.36-5.36A5.175,5.175,0,0,0,155,264.1Zm0-1.26a4.105,4.105,0,1,1,3.9-4.1A3.852,3.852,0,0,1,155,262.84Zm15.08-4.28a2.437,2.437,0,0,0,1.78-2.38c0-1.74-1.46-2.7-3.84-2.7h-4.64V264h4.78c2.74,0,4.06-1.04,4.06-2.86A2.429,2.429,0,0,0,170.08,258.56Zm-5.32-3.96h3.16c1.62,0,2.52.58,2.52,1.76s-.9,1.8-2.52,1.8h-3.16Zm3.34,8.28h-3.34v-3.66h3.48c1.78,0,2.58.58,2.58,1.84S169.88,262.88,168.1,262.88Zm7.44,1.12h1.42v-4.64h6.62V264H185V253.48h-1.42v4.66h-6.62v-4.66h-1.42Zm22.72-5.26a5.013,5.013,0,0,0-5.1-5.34,5.067,5.067,0,0,0-5.14,5.34,5.562,5.562,0,0,0,9.58,3.64l-.8-.92a4.147,4.147,0,0,1-3.22,1.38,3.894,3.894,0,0,1-4.14-3.66h8.8C198.24,259.02,198.26,258.86,198.26,258.74Zm-5.1-4.12a3.659,3.659,0,0,1,3.74,3.5h-7.46A3.654,3.654,0,0,1,193.16,254.62Zm13.02-2.64c1.78,0,2.96-.92,3-2.6h-1.02a1.791,1.791,0,0,1-1.98,1.72,1.762,1.762,0,0,1-1.96-1.72H203.2C203.24,251.06,204.4,251.98,206.18,251.98ZM201.4,264h1.28l7-8.36V264h1.42V253.48h-1.26l-7.02,8.36v-8.36H201.4Zm24.12-5.48a2.579,2.579,0,0,0,2.04-2.34c0-1.72-1.84-2.82-4.24-2.82a8.347,8.347,0,0,0-3.9.98l.4,1.1a7.357,7.357,0,0,1,3.36-.86c1.68,0,2.92.64,2.92,1.8,0,1.04-1.08,1.66-2.62,1.66h-1.72v1.04h1.8c1.76,0,2.84.66,2.84,1.78,0,1.28-1.42,2.04-3.32,2.04a6.181,6.181,0,0,1-3.62-1.14l-.48,1.06a6.951,6.951,0,0,0,4.16,1.3c2.62,0,4.72-1.24,4.72-3.14C227.86,259.74,227,258.86,225.52,258.52Zm5.56,5.48h1.42v-4.64h6.62V264h1.42V253.48h-1.42v4.66H232.5v-4.66h-1.42Zm17.12-10.6a6.68,6.68,0,0,0-4.28,1.42l.64,1.06a5.359,5.359,0,0,1,3.5-1.24c1.96,0,2.98.98,2.98,2.78v.64H247.7c-3.02,0-4.06,1.36-4.06,2.98,0,1.82,1.46,3.06,3.84,3.06a3.95,3.95,0,0,0,3.62-1.74V264h1.36v-6.52C252.46,254.76,250.92,253.4,248.2,253.4Zm-.5,9.58c-1.68,0-2.66-.76-2.66-1.98,0-1.08.66-1.88,2.7-1.88h3.3v1.72A3.366,3.366,0,0,1,247.7,262.98Zm8.54,1.02h1.42v-4.64h6.62V264h1.42V253.48h-1.42v4.66h-6.62v-4.66h-1.42Zm13.5,0h1.28l7-8.36V264h1.42V253.48h-1.26l-7.02,8.36v-8.36h-1.42Zm18.54-12.02c1.78,0,2.96-.92,3-2.6h-1.02a1.791,1.791,0,0,1-1.98,1.72,1.762,1.762,0,0,1-1.96-1.72H285.3C285.34,251.06,286.5,251.98,288.28,251.98ZM283.5,264h1.28l7-8.36V264h1.42V253.48h-1.26l-7.02,8.36v-8.36H283.5Zm13.86.1a1.093,1.093,0,0,0,1.08-1.1,1.075,1.075,0,0,0-1.08-1.08A1.059,1.059,0,0,0,296.3,263,1.076,1.076,0,0,0,297.36,264.1ZM13.12,286.72V274H3.68l-.16,4.54c-.14,4.46-.58,8.06-2.58,8.18H.24l-.02,4.42H1.6L1.62,288H13.84v3.14h1.38v-4.42Zm-8.28-8.04.12-3.4h6.7v11.44H3.04C4.38,285.7,4.72,282.32,4.84,278.68Zm13.96-1.2-.18,3.76c-.14,2.78-.3,5.6-2.04,5.6a2.572,2.572,0,0,1-.5-.08l-.1,1.22a3.977,3.977,0,0,0,1.02.16c2.26,0,2.72-3.12,2.9-6.8l.14-2.6h5.04V288H26.5V277.48Zm15.4,0c-2.72,0-4.48,1.2-4.48,3.6a3.138,3.138,0,0,0,2.54,3.24L29.64,288h1.54l2.44-3.48h3.7V288h1.3V277.48Zm-3.04,3.64c0-1.68,1.12-2.38,3.08-2.38h3.08v4.72H34.14C32.18,283.46,31.16,282.72,31.16,281.12ZM52.3,288.1a4.638,4.638,0,0,0,4.12-2.08l-1.06-.72a3.558,3.558,0,0,1-3.06,1.54,4.1,4.1,0,0,1,0-8.2,3.576,3.576,0,0,1,3.06,1.56l1.06-.72a4.6,4.6,0,0,0-4.12-2.08,5.35,5.35,0,1,0,0,10.7Zm10.48-10.7a6.68,6.68,0,0,0-4.28,1.42l.64,1.06a5.359,5.359,0,0,1,3.5-1.24c1.96,0,2.98.98,2.98,2.78v.64H62.28c-3.02,0-4.06,1.36-4.06,2.98,0,1.82,1.46,3.06,3.84,3.06a3.95,3.95,0,0,0,3.62-1.74V288h1.36v-6.52C67.04,278.76,65.5,277.4,62.78,277.4Zm-.5,9.58c-1.68,0-2.66-.76-2.66-1.98,0-1.08.66-1.88,2.7-1.88h3.3v1.72A3.366,3.366,0,0,1,62.28,286.98Zm18.98-9.5-4.54,7.58-4.46-7.58H70.82V288h1.3v-8.34l4.26,7.06h.64l4.26-7.04V288h1.3V277.48Zm9.78,3.72-3-.04v-3.68H86.62V288l4.16.02c2.78.04,4.32-1.22,4.32-3.46C95.1,282.4,93.68,281.22,91.04,281.2Zm5.82,6.8h1.42V277.48H96.86Zm-6.16-1.06-2.66-.04v-4.68l2.66.04c1.96.02,2.96.74,2.96,2.3C93.66,286.14,92.64,286.96,90.7,286.94ZM110.52,288l-4.2-5.4,3.96-5.12h-1.56l-3.16,4.12-3.16-4.12h-1.6l3.96,5.12L100.6,288h1.6l3.36-4.4,3.34,4.4Zm18-10.52-4.54,7.58-4.46-7.58h-1.44V288h1.3v-8.34l4.26,7.06h.64l4.26-7.04V288h1.3V277.48Zm8.98-.08a6.68,6.68,0,0,0-4.28,1.42l.64,1.06a5.359,5.359,0,0,1,3.5-1.24c1.96,0,2.98.98,2.98,2.78v.64H137c-3.02,0-4.06,1.36-4.06,2.98,0,1.82,1.46,3.06,3.84,3.06a3.95,3.95,0,0,0,3.62-1.74V288h1.36v-6.52C141.76,278.76,140.22,277.4,137.5,277.4Zm-.5,9.58c-1.68,0-2.66-.76-2.66-1.98,0-1.08.66-1.88,2.7-1.88h3.3v1.72A3.366,3.366,0,0,1,137,286.98Zm9.44-9.5-.18,3.76c-.14,2.78-.3,5.6-2.04,5.6a2.572,2.572,0,0,1-.5-.08l-.1,1.22a3.977,3.977,0,0,0,1.02.16c2.26,0,2.72-3.12,2.9-6.8l.14-2.6h5.04V288h1.42V277.48Zm20.96,5.26a5.013,5.013,0,0,0-5.1-5.34,5.067,5.067,0,0,0-5.14,5.34,5.562,5.562,0,0,0,9.58,3.64l-.8-.92a4.147,4.147,0,0,1-3.22,1.38,3.894,3.894,0,0,1-4.14-3.66h8.8C167.38,283.02,167.4,282.86,167.4,282.74Zm-5.1-4.12a3.659,3.659,0,0,1,3.74,3.5h-7.46A3.654,3.654,0,0,1,162.3,278.62Zm8.24,9.38h1.42v-4.64h6.62V288H180V277.48h-1.42v4.66h-6.62v-4.66h-1.42Zm18.02-6.8-3.1-.04v-3.68h-1.42V288l4.24.02c2.8.04,4.32-1.22,4.32-3.46C192.6,282.4,191.2,281.22,188.56,281.2Zm-.36,5.74-2.74-.04v-4.68l2.74.04c1.96.02,2.96.74,2.96,2.3C191.16,286.14,190.14,286.96,188.2,286.94ZM203,288h1.68l-4.44-5.42,4.14-5.1h-1.54l-3.7,4.62h-2.42v-4.62H195.3V288h1.42v-4.68h2.4Zm3.92,0h1.28l7-8.36V288h1.42V277.48h-1.26l-7.02,8.36v-8.36h-1.42Zm21.96,0-4.2-5.4,3.96-5.12h-1.56l-3.16,4.12-3.16-4.12h-1.6l3.96,5.12-4.16,5.4h1.6l3.36-4.4,3.34,4.4ZM2.02,301.48V312H3.44v-9.26h6.6V312h1.42V301.48Zm18.9-.08a4.582,4.582,0,0,0-4.06,2.16v-2.08H15.5v14.4h1.42v-5.86a4.6,4.6,0,0,0,4,2.08,5.351,5.351,0,0,0,0-10.7Zm-.1,9.44a4.1,4.1,0,1,1,3.92-4.1A3.852,3.852,0,0,1,20.82,310.84Zm12.74,1.26a5.35,5.35,0,0,0,0-10.7,5.35,5.35,0,1,0,0,10.7Zm0-1.26a4.105,4.105,0,1,1,3.9-4.1A3.852,3.852,0,0,1,33.56,310.84Zm15.08-4.28a2.437,2.437,0,0,0,1.78-2.38c0-1.74-1.46-2.7-3.84-2.7H41.94V312h4.78c2.74,0,4.06-1.04,4.06-2.86A2.429,2.429,0,0,0,48.64,306.56Zm-5.32-3.96h3.16c1.62,0,2.52.58,2.52,1.76s-.9,1.8-2.52,1.8H43.32Zm3.34,8.28H43.32v-3.66H46.8c1.78,0,2.58.58,2.58,1.84S48.44,310.88,46.66,310.88Zm11.78,1.22a5.35,5.35,0,1,0-5.36-5.36A5.175,5.175,0,0,0,58.44,312.1Zm0-1.26a4.105,4.105,0,1,1,3.9-4.1A3.852,3.852,0,0,1,58.44,310.84Zm16.94-.08v-9.28H67.62L67.48,305c-.14,2.84-.4,5.66-1.96,5.76h-.6v3.78h1.34V312h9.42v2.54h1.34v-3.78Zm-6.6-5.68.12-2.34h5.06v8.02H67.4C68.46,309.96,68.68,307.48,68.78,305.08Zm14.66-3.6c-2.72,0-4.48,1.2-4.48,3.6a3.138,3.138,0,0,0,2.54,3.24L78.88,312h1.54l2.44-3.48h3.7V312h1.3V301.48Zm-3.04,3.64c0-1.68,1.12-2.38,3.08-2.38h3.08v4.72H83.38C81.42,307.46,80.4,306.72,80.4,305.12Zm18.9-3.64H89.92v1.26H93.9V312h1.42v-9.26H99.3Zm5.98,10.62a4.638,4.638,0,0,0,4.12-2.08l-1.06-.72a3.558,3.558,0,0,1-3.06,1.54,4.1,4.1,0,0,1,0-8.2,3.576,3.576,0,0,1,3.06,1.56l1.06-.72a4.6,4.6,0,0,0-4.12-2.08,5.35,5.35,0,1,0,0,10.7Zm10.16-10.62c-2.72,0-4.48,1.2-4.48,3.6a3.138,3.138,0,0,0,2.54,3.24L110.88,312h1.54l2.44-3.48h3.7V312h1.3V301.48Zm-3.04,3.64c0-1.68,1.12-2.38,3.08-2.38h3.08v4.72h-3.18C113.42,307.46,112.4,306.72,112.4,305.12ZM129.14,312h1.28l7-8.36V312h1.42V301.48h-1.26l-7.02,8.36v-8.36h-1.42Zm13.76,0h1.42v-4.64h6.62V312h1.42V301.48h-1.42v4.66h-6.62v-4.66H142.9Zm20.9-10.52h-9.38v1.26h3.98V312h1.42v-9.26h3.98Zm10.8,5.26a5.013,5.013,0,0,0-5.1-5.34,5.067,5.067,0,0,0-5.14,5.34,5.562,5.562,0,0,0,9.58,3.64l-.8-.92a4.147,4.147,0,0,1-3.22,1.38,3.894,3.894,0,0,1-4.14-3.66h8.8C174.58,307.02,174.6,306.86,174.6,306.74Zm-5.1-4.12a3.659,3.659,0,0,1,3.74,3.5h-7.46A3.654,3.654,0,0,1,169.5,302.62Zm13.66-1.22a4.582,4.582,0,0,0-4.06,2.16v-2.08h-1.36v14.4h1.42v-5.86a4.6,4.6,0,0,0,4,2.08,5.351,5.351,0,0,0,0-10.7Zm-.1,9.44a4.1,4.1,0,1,1,3.92-4.1A3.852,3.852,0,0,1,183.06,310.84Zm17.62-4.1a5.013,5.013,0,0,0-5.1-5.34,5.067,5.067,0,0,0-5.14,5.34,5.562,5.562,0,0,0,9.58,3.64l-.8-.92a4.147,4.147,0,0,1-3.22,1.38,3.894,3.894,0,0,1-4.14-3.66h8.8C200.66,307.02,200.68,306.86,200.68,306.74Zm-5.1-4.12a3.659,3.659,0,0,1,3.74,3.5h-7.46A3.654,3.654,0,0,1,195.58,302.62Zm12.64,9.48a4.637,4.637,0,0,0,4.12-2.08l-1.06-.72a3.558,3.558,0,0,1-3.06,1.54,4.1,4.1,0,0,1,0-8.2,3.576,3.576,0,0,1,3.06,1.56l1.06-.72a4.6,4.6,0,0,0-4.12-2.08,5.35,5.35,0,1,0,0,10.7Zm6.86-.1h1.42v-4.64h6.62V312h1.42V301.48h-1.42v4.66H216.5v-4.66h-1.42ZM233,305.2l-3-.04v-3.68h-1.42V312l4.16.02c2.78.04,4.32-1.22,4.32-3.46C237.06,306.4,235.64,305.22,233,305.2Zm5.82,6.8h1.42V301.48h-1.42Zm-6.16-1.06L230,310.9v-4.68l2.66.04c1.96.02,2.96.74,2.96,2.3C235.62,310.14,234.6,310.96,232.66,310.94Zm20.84-4.2a5.013,5.013,0,0,0-5.1-5.34,5.067,5.067,0,0,0-5.14,5.34,5.562,5.562,0,0,0,9.58,3.64l-.8-.92a4.147,4.147,0,0,1-3.22,1.38,3.894,3.894,0,0,1-4.14-3.66h8.8C253.48,307.02,253.5,306.86,253.5,306.74Zm-5.1-4.12a3.659,3.659,0,0,1,3.74,3.5h-7.46A3.654,3.654,0,0,1,248.4,302.62ZM10.64,334.76v-9.28H2.88L2.74,329c-.14,2.84-.4,5.66-1.96,5.76H.18v3.78H1.52V336h9.42v2.54h1.34v-3.78Zm-6.6-5.68.12-2.34H9.22v8.02H2.66C3.72,333.96,3.94,331.48,4.04,329.08Zm20.22,1.66a5.013,5.013,0,0,0-5.1-5.34,5.067,5.067,0,0,0-5.14,5.34,5.21,5.21,0,0,0,5.52,5.36,5.178,5.178,0,0,0,4.06-1.72l-.8-.92a4.147,4.147,0,0,1-3.22,1.38,3.894,3.894,0,0,1-4.14-3.66h8.8C24.24,331.02,24.26,330.86,24.26,330.74Zm-5.1-4.12a3.659,3.659,0,0,1,3.74,3.5H15.44A3.654,3.654,0,0,1,19.16,326.62Zm15.18-1.14H24.96v1.26h3.98V336h1.42v-9.26h3.98Zm5.98,10.62a4.637,4.637,0,0,0,4.12-2.08l-1.06-.72a3.558,3.558,0,0,1-3.06,1.54,4.1,4.1,0,0,1,0-8.2,3.576,3.576,0,0,1,3.06,1.56l1.06-.72a4.6,4.6,0,0,0-4.12-2.08,5.35,5.35,0,1,0,0,10.7Zm14.56-.1h1.68l-4.44-5.42,4.14-5.1H54.72l-3.7,4.62H48.6v-4.62H47.18V336H48.6v-4.68H51Zm3.92,0h1.28l7-8.36V336H68.5V325.48H67.24l-7.02,8.36v-8.36H58.8Zm22.98-5.26a5.013,5.013,0,0,0-5.1-5.34,5.067,5.067,0,0,0-5.14,5.34,5.562,5.562,0,0,0,9.58,3.64l-.8-.92a4.147,4.147,0,0,1-3.22,1.38,3.894,3.894,0,0,1-4.14-3.66h8.8C81.76,331.02,81.78,330.86,81.78,330.74Zm-5.1-4.12a3.659,3.659,0,0,1,3.74,3.5H72.96A3.654,3.654,0,0,1,76.68,326.62Zm18.6,3.9a2.579,2.579,0,0,0,2.04-2.34c0-1.72-1.84-2.82-4.24-2.82a8.347,8.347,0,0,0-3.9.98l.4,1.1a7.357,7.357,0,0,1,3.36-.86c1.68,0,2.92.64,2.92,1.8,0,1.04-1.08,1.66-2.62,1.66H91.52v1.04h1.8c1.76,0,2.84.66,2.84,1.78,0,1.28-1.42,2.04-3.32,2.04a6.181,6.181,0,0,1-3.62-1.14l-.48,1.06a6.951,6.951,0,0,0,4.16,1.3c2.62,0,4.72-1.24,4.72-3.14C97.62,331.74,96.76,330.86,95.28,330.52Zm9.18-5.12a6.68,6.68,0,0,0-4.28,1.42l.64,1.06a5.359,5.359,0,0,1,3.5-1.24c1.96,0,2.98.98,2.98,2.78v.64h-3.34c-3.02,0-4.06,1.36-4.06,2.98,0,1.82,1.46,3.06,3.84,3.06a3.95,3.95,0,0,0,3.62-1.74V336h1.36v-6.52C108.72,326.76,107.18,325.4,104.46,325.4Zm-.5,9.58c-1.68,0-2.66-.76-2.66-1.98,0-1.08.66-1.88,2.7-1.88h3.3v1.72A3.366,3.366,0,0,1,103.96,334.98ZM112.5,336h1.42v-4.64h6.62V336h1.42V325.48h-1.42v4.66h-6.62v-4.66H112.5Zm17.16-10.52c-2.72,0-4.48,1.2-4.48,3.6a3.138,3.138,0,0,0,2.54,3.24L125.1,336h1.54l2.44-3.48h3.7V336h1.3V325.48Zm-3.04,3.64c0-1.68,1.12-2.38,3.08-2.38h3.08v4.72H129.6C127.64,331.46,126.62,330.72,126.62,329.12Zm18.9-3.64h-9.38v1.26h3.98V336h1.42v-9.26h3.98ZM147.58,336h1.28l7-8.36V336h1.42V325.48h-1.26L149,333.84v-8.36h-1.42ZM165,325.48c-2.72,0-4.48,1.2-4.48,3.6a3.138,3.138,0,0,0,2.54,3.24L160.44,336h1.54l2.44-3.48h3.7V336h1.3V325.48Zm-3.04,3.64c0-1.68,1.12-2.38,3.08-2.38h3.08v4.72h-3.18C162.98,331.46,161.96,330.72,161.96,329.12Zm11.6,6.98a1.093,1.093,0,0,0,1.08-1.1,1.075,1.075,0,0,0-1.08-1.08A1.059,1.059,0,0,0,172.5,335,1.076,1.076,0,0,0,173.56,336.1ZM11.88,370l-5,9.48L2,370H.42L6.1,380.78l-.4.68a2.587,2.587,0,0,1-2.26,1.5,3.643,3.643,0,0,1-1.32-.28l-.42,1.2a4.535,4.535,0,0,0,1.72.38A4.053,4.053,0,0,0,7,381.78L13.36,370Zm9.32,14h5.72c3.46,0,5.38-1.48,5.38-4.18,0-2.6-1.76-3.98-5.06-3.98H22.66v-4.58h8.78V370H21.2Zm1.46-1.18v-5.8H26.9c2.62,0,3.92.92,3.92,2.86s-1.34,2.94-3.92,2.94Zm17.08,1.28a5.35,5.35,0,1,0-5.36-5.36A5.175,5.175,0,0,0,39.74,384.1Zm0-1.26a4.105,4.105,0,1,1,3.9-4.1A3.852,3.852,0,0,1,39.74,382.84Zm15.82-9.36H48.12V384h1.42v-9.26h6.02Zm5.68-.08a6.68,6.68,0,0,0-4.28,1.42l.64,1.06a5.359,5.359,0,0,1,3.5-1.24c1.96,0,2.98.98,2.98,2.78v.64H60.74c-3.02,0-4.06,1.36-4.06,2.98,0,1.82,1.46,3.06,3.84,3.06a3.95,3.95,0,0,0,3.62-1.74V384H65.5v-6.52C65.5,374.76,63.96,373.4,61.24,373.4Zm-.5,9.58c-1.68,0-2.66-.76-2.66-1.98,0-1.08.66-1.88,2.7-1.88h3.3v1.72A3.366,3.366,0,0,1,60.74,382.98Zm23-4.24a5.013,5.013,0,0,0-5.1-5.34,5.067,5.067,0,0,0-5.14,5.34,5.562,5.562,0,0,0,9.58,3.64l-.8-.92a4.147,4.147,0,0,1-3.22,1.38,3.894,3.894,0,0,1-4.14-3.66h8.8C83.72,379.02,83.74,378.86,83.74,378.74Zm-5.1-4.12a3.659,3.659,0,0,1,3.74,3.5H74.92A3.654,3.654,0,0,1,78.64,374.62Zm12.64,9.48a4.637,4.637,0,0,0,4.12-2.08l-1.06-.72a3.558,3.558,0,0,1-3.06,1.54,4.1,4.1,0,0,1,0-8.2,3.576,3.576,0,0,1,3.06,1.56l1.06-.72a4.6,4.6,0,0,0-4.12-2.08,5.35,5.35,0,1,0,0,10.7Zm14.06-10.62H95.96v1.26h3.98V384h1.42v-9.26h3.98Zm6.58,3.72-3.1-.04v-3.68H107.4V384l4.24.02c2.8.04,4.32-1.22,4.32-3.46C115.96,378.4,114.56,377.22,111.92,377.2Zm-.36,5.74-2.74-.04v-4.68l2.74.04c1.96.02,2.96.74,2.96,2.3C114.52,382.14,113.5,382.96,111.56,382.94Zm12.34-9.46V384h1.42v-9.26h6.6V384h1.42V373.48Zm14.38,0-.18,3.76c-.14,2.78-.3,5.6-2.04,5.6a2.572,2.572,0,0,1-.5-.08l-.1,1.22a3.977,3.977,0,0,0,1.02.16c2.26,0,2.72-3.12,2.9-6.8l.14-2.6h5.04V384h1.42V373.48Zm15.36-.08a6.68,6.68,0,0,0-4.28,1.42l.64,1.06a5.359,5.359,0,0,1,3.5-1.24c1.96,0,2.98.98,2.98,2.78v.64h-3.34c-3.02,0-4.06,1.36-4.06,2.98,0,1.82,1.46,3.06,3.84,3.06a3.95,3.95,0,0,0,3.62-1.74V384h1.36v-6.52C157.9,374.76,156.36,373.4,153.64,373.4Zm-.5,9.58c-1.68,0-2.66-.76-2.66-1.98,0-1.08.66-1.88,2.7-1.88h3.3v1.72A3.366,3.366,0,0,1,153.14,382.98Zm8.54,1.02h1.42v-4.64h6.62V384h1.42V373.48h-1.42v4.66H163.1v-4.66h-1.42Zm17.92-6.8-3-.04v-3.68h-1.42V384l4.16.02c2.78.04,4.32-1.22,4.32-3.46C183.66,378.4,182.24,377.22,179.6,377.2Zm5.82,6.8h1.42V373.48h-1.42Zm-6.16-1.06-2.66-.04v-4.68l2.66.04c1.96.02,2.96.74,2.96,2.3C182.22,382.14,181.2,382.96,179.26,382.94ZM196.12,384h1.42v-4.64h6.62V384h1.42V373.48h-1.42v4.66h-6.62v-4.66h-1.42Zm17.12-10.6a6.68,6.68,0,0,0-4.28,1.42l.64,1.06a5.359,5.359,0,0,1,3.5-1.24c1.96,0,2.98.98,2.98,2.78v.64h-3.34c-3.02,0-4.06,1.36-4.06,2.98,0,1.82,1.46,3.06,3.84,3.06a3.95,3.95,0,0,0,3.62-1.74V384h1.36v-6.52C217.5,374.76,215.96,373.4,213.24,373.4Zm-.5,9.58c-1.68,0-2.66-.76-2.66-1.98,0-1.08.66-1.88,2.7-1.88h3.3v1.72A3.366,3.366,0,0,1,212.74,382.98Zm14.68-9.5-.18,3.76c-.14,2.78-.3,5.6-2.04,5.6a2.572,2.572,0,0,1-.5-.08l-.1,1.22a3.977,3.977,0,0,0,1.02.16c2.26,0,2.72-3.12,2.9-6.8l.14-2.6h5.04V384h1.42V373.48Zm20.78-.08a5.056,5.056,0,0,0-5.2,4.62h-2.42v-4.54h-1.42V384h1.42v-4.68h2.4a5.242,5.242,0,1,0,5.22-5.92Zm0,9.46a4.121,4.121,0,1,1,3.82-4.12A3.826,3.826,0,0,1,248.2,382.86Zm16.82-.1v-9.28h-7.76l-.14,3.52c-.14,2.84-.4,5.66-1.96,5.76h-.6v3.78h1.34V384h9.42v2.54h1.34v-3.78Zm-6.6-5.68.12-2.34h5.06v8.02h-6.56C258.1,381.96,258.32,379.48,258.42,377.08Zm20.22,1.66a5.013,5.013,0,0,0-5.1-5.34,5.067,5.067,0,0,0-5.14,5.34,5.562,5.562,0,0,0,9.58,3.64l-.8-.92a4.147,4.147,0,0,1-3.22,1.38,3.894,3.894,0,0,1-4.14-3.66h8.8C278.62,379.02,278.64,378.86,278.64,378.74Zm-5.1-4.12a3.659,3.659,0,0,1,3.74,3.5h-7.46A3.654,3.654,0,0,1,273.54,374.62Zm13.02-2.64c1.78,0,2.96-.92,3-2.6h-1.02a1.791,1.791,0,0,1-1.98,1.72,1.762,1.762,0,0,1-1.96-1.72h-1.02C283.62,371.06,284.78,371.98,286.56,371.98ZM281.78,384h1.28l7-8.36V384h1.42V373.48h-1.26l-7.02,8.36v-8.36h-1.42Zm13.88-2.08A1.047,1.047,0,0,0,294.6,383a1.011,1.011,0,0,0,.72,1.02l-.68,2.9h.96l.84-2.76a3.263,3.263,0,0,0,.28-1.16A1.047,1.047,0,0,0,295.66,381.92ZM2.02,397.48V408H3.44v-9.26h6.6V408h1.42V397.48Zm14.38,0-.18,3.76c-.14,2.78-.3,5.6-2.04,5.6a2.572,2.572,0,0,1-.5-.08l-.1,1.22a3.977,3.977,0,0,0,1.02.16c2.26,0,2.72-3.12,2.9-6.8l.14-2.6h5.04V408H24.1V397.48Zm15.36-.08a6.68,6.68,0,0,0-4.28,1.42l.64,1.06a5.359,5.359,0,0,1,3.5-1.24c1.96,0,2.98.98,2.98,2.78v.64H31.26c-3.02,0-4.06,1.36-4.06,2.98,0,1.82,1.46,3.06,3.84,3.06a3.95,3.95,0,0,0,3.62-1.74V408h1.36v-6.52C36.02,398.76,34.48,397.4,31.76,397.4Zm-.5,9.58c-1.68,0-2.66-.76-2.66-1.98,0-1.08.66-1.88,2.7-1.88h3.3v1.72A3.366,3.366,0,0,1,31.26,406.98ZM39.8,408h1.42v-4.64h6.62V408h1.42V397.48H47.84v4.66H41.22v-4.66H39.8Zm17.92-6.8-3-.04v-3.68H53.3V408l4.16.02c2.78.04,4.32-1.22,4.32-3.46C61.78,402.4,60.36,401.22,57.72,401.2Zm5.82,6.8h1.42V397.48H63.54Zm-6.16-1.06-2.66-.04v-4.68l2.66.04c1.96.02,2.96.74,2.96,2.3C60.34,406.14,59.32,406.96,57.38,406.94Zm11.74-1.02A1.047,1.047,0,0,0,68.06,407a1.011,1.011,0,0,0,.72,1.02l-.68,2.9h.96l.84-2.76a3.263,3.263,0,0,0,.28-1.16A1.046,1.046,0,0,0,69.12,405.92ZM86.18,408h1.68l-4.44-5.42,4.14-5.1H86.02l-3.7,4.62H79.9v-4.62H78.48V408H79.9v-4.68h2.4Zm7.88.1a5.35,5.35,0,1,0-5.36-5.36A5.175,5.175,0,0,0,94.06,408.1Zm0-1.26a4.105,4.105,0,1,1,3.9-4.1A3.852,3.852,0,0,1,94.06,406.84Zm15.38-9.36h-9.38v1.26h3.98V408h1.42v-9.26h3.98Zm5.92,10.62a5.35,5.35,0,1,0-5.36-5.36A5.175,5.175,0,0,0,115.36,408.1Zm0-1.26a4.105,4.105,0,1,1,3.9-4.1A3.852,3.852,0,0,1,115.36,406.84Zm13.8-9.44a4.582,4.582,0,0,0-4.06,2.16v-2.08h-1.36v14.4h1.42v-5.86a4.6,4.6,0,0,0,4,2.08,5.351,5.351,0,0,0,0-10.7Zm-.1,9.44a4.1,4.1,0,1,1,3.92-4.1A3.852,3.852,0,0,1,129.06,406.84Zm12.82-5.64-3-.04v-3.68h-1.42V408l4.16.02c2.78.04,4.32-1.22,4.32-3.46C145.94,402.4,144.52,401.22,141.88,401.2Zm5.82,6.8h1.42V397.48H147.7Zm-6.16-1.06-2.66-.04v-4.68l2.66.04c1.96.02,2.96.74,2.96,2.3C144.5,406.14,143.48,406.96,141.54,406.94Zm20.84-4.2a5.013,5.013,0,0,0-5.1-5.34,5.067,5.067,0,0,0-5.14,5.34,5.562,5.562,0,0,0,9.58,3.64l-.8-.92a4.147,4.147,0,0,1-3.22,1.38,3.894,3.894,0,0,1-4.14-3.66h8.8C162.36,403.02,162.38,402.86,162.38,402.74Zm-5.1-4.12a3.659,3.659,0,0,1,3.74,3.5h-7.46A3.654,3.654,0,0,1,157.28,398.62Zm22.1,8.14v-9.28h-7.76l-.14,3.52c-.14,2.84-.4,5.66-1.96,5.76h-.6v3.78h1.34V408h9.42v2.54h1.34v-3.78Zm-6.6-5.68.12-2.34h5.06v8.02H171.4C172.46,405.96,172.68,403.48,172.78,401.08Zm14.62-3.68a6.68,6.68,0,0,0-4.28,1.42l.64,1.06a5.359,5.359,0,0,1,3.5-1.24c1.96,0,2.98.98,2.98,2.78v.64H186.9c-3.02,0-4.06,1.36-4.06,2.98,0,1.82,1.46,3.06,3.84,3.06a3.95,3.95,0,0,0,3.62-1.74V408h1.36v-6.52C191.66,398.76,190.12,397.4,187.4,397.4Zm-.5,9.58c-1.68,0-2.66-.76-2.66-1.98,0-1.08.66-1.88,2.7-1.88h3.3v1.72A3.366,3.366,0,0,1,186.9,406.98Zm17.58-9.58a5.056,5.056,0,0,0-5.2,4.62h-2.42v-4.54h-1.42V408h1.42v-4.68h2.4a5.242,5.242,0,1,0,5.22-5.92Zm0,9.46a4.121,4.121,0,1,1,3.82-4.12A3.826,3.826,0,0,1,204.48,406.86Zm15.26-9.38h-9.38v1.26h3.98V408h1.42v-9.26h3.98Zm8.2,0-.18,3.76c-.14,2.78-.3,5.6-2.04,5.6a2.572,2.572,0,0,1-.5-.08l-.1,1.22a3.977,3.977,0,0,0,1.02.16c2.26,0,2.72-3.12,2.9-6.8l.14-2.6h5.04V408h1.42V397.48Zm20.78-.08a5.056,5.056,0,0,0-5.2,4.62H241.1v-4.54h-1.42V408h1.42v-4.68h2.4a5.242,5.242,0,1,0,5.22-5.92Zm0,9.46a4.121,4.121,0,1,1,3.82-4.12A3.826,3.826,0,0,1,248.72,406.86Zm16.82-.1v-9.28h-7.76l-.14,3.52c-.14,2.84-.4,5.66-1.96,5.76h-.6v3.78h1.34V408h9.42v2.54h1.34v-3.78Zm-6.6-5.68.12-2.34h5.06v8.02h-6.56C258.62,405.96,258.84,403.48,258.94,401.08Zm14.66-3.6c-2.72,0-4.48,1.2-4.48,3.6a3.138,3.138,0,0,0,2.54,3.24L269.04,408h1.54l2.44-3.48h3.7V408h1.3V397.48Zm-3.04,3.64c0-1.68,1.12-2.38,3.08-2.38h3.08v4.72h-3.18C271.58,403.46,270.56,402.72,270.56,401.12Zm21.94-3.64-4.54,7.58-4.46-7.58h-1.44V408h1.3v-8.34l4.26,7.06h.64l4.26-7.04V408h1.3V397.48ZM2.02,432H3.44v-4.64h6.62V432h1.42V421.48H10.06v4.66H3.44v-4.66H2.02Zm17.12-10.6a6.68,6.68,0,0,0-4.28,1.42l.64,1.06a5.359,5.359,0,0,1,3.5-1.24c1.96,0,2.98.98,2.98,2.78v.64H18.64c-3.02,0-4.06,1.36-4.06,2.98,0,1.82,1.46,3.06,3.84,3.06a3.95,3.95,0,0,0,3.62-1.74V432H23.4v-6.52C23.4,422.76,21.86,421.4,19.14,421.4Zm-.5,9.58c-1.68,0-2.66-.76-2.66-1.98,0-1.08.66-1.88,2.7-1.88h3.3v1.72A3.366,3.366,0,0,1,18.64,430.98Zm17.16-.22v-9.28H28.04L27.9,425c-.14,2.84-.4,5.66-1.96,5.76h-.6v3.78h1.34V432H36.1v2.54h1.34v-3.78Zm-6.6-5.68.12-2.34h5.06v8.02H27.82C28.88,429.96,29.1,427.48,29.2,425.08Zm20.22,1.66a5.013,5.013,0,0,0-5.1-5.34,5.067,5.067,0,0,0-5.14,5.34,5.21,5.21,0,0,0,5.52,5.36,5.178,5.178,0,0,0,4.06-1.72l-.8-.92a4.147,4.147,0,0,1-3.22,1.38,3.894,3.894,0,0,1-4.14-3.66h8.8C49.4,427.02,49.42,426.86,49.42,426.74Zm-5.1-4.12a3.659,3.659,0,0,1,3.74,3.5H40.6A3.654,3.654,0,0,1,44.32,422.62ZM64.72,432h1.7l-3.78-5.4,3.48-5.12H64.58l-3.1,4.62H59.2v-4.62H57.78v4.62H55.5l-3.08-4.62H50.88l3.48,5.1L50.58,432h1.7l3.22-4.68h2.28V432H59.2v-4.68h2.28Zm12.68-1.24v-9.28H69.64L69.5,425c-.14,2.84-.4,5.66-1.96,5.76h-.6v3.78h1.34V432H77.7v2.54h1.34v-3.78Zm-6.6-5.68.12-2.34h5.06v8.02H69.42C70.48,429.96,70.7,427.48,70.8,425.08Zm18.54-3.6-3.96,8.94-3.96-8.94H79.94l4.7,10.5L84.18,433c-.6,1.32-1.24,1.76-2.18,1.76a2.627,2.627,0,0,1-1.92-.8l-.66,1.06a3.6,3.6,0,0,0,2.56.96c1.5,0,2.62-.66,3.5-2.72l5.26-11.78ZM98.2,432h1.42v-4.64h6.62V432h1.42V421.48h-1.42v4.66H99.62v-4.66H98.2Zm17.12-10.6a6.68,6.68,0,0,0-4.28,1.42l.64,1.06a5.359,5.359,0,0,1,3.5-1.24c1.96,0,2.98.98,2.98,2.78v.64h-3.34c-3.02,0-4.06,1.36-4.06,2.98,0,1.82,1.46,3.06,3.84,3.06a3.95,3.95,0,0,0,3.62-1.74V432h1.36v-6.52C119.58,422.76,118.04,421.4,115.32,421.4Zm-.5,9.58c-1.68,0-2.66-.76-2.66-1.98,0-1.08.66-1.88,2.7-1.88h3.3v1.72A3.366,3.366,0,0,1,114.82,430.98Zm18.88-9.24a4.778,4.778,0,0,0-4.4,2.6c.14-3.36,1.5-4.86,4.48-5.52l4.44-1.02-.24-1.3-4.72,1.08c-3.58.84-5.32,3.04-5.32,7.62,0,4.28,1.96,6.92,5.5,6.92a5.024,5.024,0,0,0,5.3-5.24A4.867,4.867,0,0,0,133.7,421.74Zm-.22,9.2a3.778,3.778,0,0,1-3.84-4.02,3.831,3.831,0,1,1,7.66,0A3.763,3.763,0,0,1,133.48,430.94Zm15.54-9.46-3.96,8.94-3.96-8.94h-1.48l4.7,10.5-.46,1.02c-.6,1.32-1.24,1.76-2.18,1.76a2.627,2.627,0,0,1-1.92-.8l-.66,1.06a3.6,3.6,0,0,0,2.56.96c1.5,0,2.62-.66,3.5-2.72l5.26-11.78Zm11.78,9.28v-9.28h-7.76L152.9,425c-.14,2.84-.4,5.66-1.96,5.76h-.6v3.78h1.34V432h9.42v2.54h1.34v-3.78Zm-6.6-5.68.12-2.34h5.06v8.02h-6.56C153.88,429.96,154.1,427.48,154.2,425.08Zm18.54-3.6-3.96,8.94-3.96-8.94h-1.48l4.7,10.5-.46,1.02c-.6,1.32-1.24,1.76-2.18,1.76a2.627,2.627,0,0,1-1.92-.8l-.66,1.06a3.6,3.6,0,0,0,2.56.96c1.5,0,2.62-.66,3.5-2.72l5.26-11.78Zm18.14,9.28v-9.28h-1.42v9.28h-5.1v-9.28h-1.42v9.28h-5.16v-9.28h-1.42V432h14.8v2.3h1.34v-3.54Zm13.28-4.02a5.013,5.013,0,0,0-5.1-5.34,5.067,5.067,0,0,0-5.14,5.34,5.562,5.562,0,0,0,9.58,3.64l-.8-.92a4.147,4.147,0,0,1-3.22,1.38,3.894,3.894,0,0,1-4.14-3.66h8.8C204.14,427.02,204.16,426.86,204.16,426.74Zm-5.1-4.12a3.659,3.659,0,0,1,3.74,3.5h-7.46A3.654,3.654,0,0,1,199.06,422.62Zm17.46,4.12a5.013,5.013,0,0,0-5.1-5.34,5.067,5.067,0,0,0-5.14,5.34,5.562,5.562,0,0,0,9.58,3.64l-.8-.92a4.147,4.147,0,0,1-3.22,1.38,3.894,3.894,0,0,1-4.14-3.66h8.8C216.5,427.02,216.52,426.86,216.52,426.74Zm-5.1-4.12a3.659,3.659,0,0,1,3.74,3.5H207.7A3.654,3.654,0,0,1,211.42,422.62Zm8.34,9.48a1.093,1.093,0,0,0,1.08-1.1,1.075,1.075,0,0,0-1.08-1.08A1.059,1.059,0,0,0,218.7,431,1.076,1.076,0,0,0,219.76,432.1ZM13.12,478.72V466H3.68l-.16,4.54c-.14,4.46-.58,8.06-2.58,8.18H.24l-.02,4.42H1.6L1.62,480H13.84v3.14h1.38v-4.42Zm-8.28-8.04.12-3.4h6.7v11.44H3.04C4.38,477.7,4.72,474.32,4.84,470.68Zm17.1,9.42a5.35,5.35,0,0,0,0-10.7,5.35,5.35,0,1,0,0,10.7Zm0-1.26a4.105,4.105,0,1,1,3.9-4.1A3.852,3.852,0,0,1,21.94,478.84Zm13.48-9.1a4.777,4.777,0,0,0-4.4,2.6c.14-3.36,1.5-4.86,4.48-5.52l4.44-1.02-.24-1.3-4.72,1.08c-3.58.84-5.32,3.04-5.32,7.62,0,4.28,1.96,6.92,5.5,6.92a5.024,5.024,0,0,0,5.3-5.24A4.867,4.867,0,0,0,35.42,469.74Zm-.22,9.2a3.778,3.778,0,0,1-3.84-4.02,3.831,3.831,0,1,1,7.66,0A3.763,3.763,0,0,1,35.2,478.94Zm13.72-9.54a4.582,4.582,0,0,0-4.06,2.16v-2.08H43.5v14.4h1.42v-5.86a4.6,4.6,0,0,0,4,2.08,5.351,5.351,0,0,0,0-10.7Zm-.1,9.44a4.1,4.1,0,1,1,3.92-4.1A3.852,3.852,0,0,1,48.82,478.84Zm12.74,1.26a5.35,5.35,0,1,0-5.36-5.36A5.175,5.175,0,0,0,61.56,480.1Zm0-1.26a4.105,4.105,0,1,1,3.9-4.1A3.852,3.852,0,0,1,61.56,478.84Zm13.62-9.36V480H76.6v-9.26h6.6V480h1.42V469.48ZM93,480.1a5.35,5.35,0,1,0-5.36-5.36A5.175,5.175,0,0,0,93,480.1Zm0-1.26a4.105,4.105,0,1,1,3.9-4.1A3.852,3.852,0,0,1,93,478.84ZM113.46,480h1.7l-3.78-5.4,3.48-5.12h-1.54l-3.1,4.62h-2.28v-4.62h-1.42v4.62h-2.28l-3.08-4.62H99.62l3.48,5.1L99.32,480h1.7l3.22-4.68h2.28V480h1.42v-4.68h2.28Zm7.48-10.6a6.68,6.68,0,0,0-4.28,1.42l.64,1.06a5.359,5.359,0,0,1,3.5-1.24c1.96,0,2.98.98,2.98,2.78v.64h-3.34c-3.02,0-4.06,1.36-4.06,2.98,0,1.82,1.46,3.06,3.84,3.06a3.95,3.95,0,0,0,3.62-1.74V480h1.36v-6.52C125.2,470.76,123.66,469.4,120.94,469.4Zm-.5,9.58c-1.68,0-2.66-.76-2.66-1.98,0-1.08.66-1.88,2.7-1.88h3.3v1.72A3.366,3.366,0,0,1,120.44,478.98Zm9.44-9.5-.18,3.76c-.14,2.78-.3,5.6-2.04,5.6a2.572,2.572,0,0,1-.5-.08l-.1,1.22a3.977,3.977,0,0,0,1.02.16c2.26,0,2.72-3.12,2.9-6.8l.14-2.6h5.04V480h1.42V469.48Zm16.08,10.62a5.35,5.35,0,1,0-5.36-5.36A5.175,5.175,0,0,0,145.96,480.1Zm0-1.26a4.105,4.105,0,1,1,3.9-4.1A3.852,3.852,0,0,1,145.96,478.84Zm15.08-4.28a2.437,2.437,0,0,0,1.78-2.38c0-1.74-1.46-2.7-3.84-2.7h-4.64V480h4.78c2.74,0,4.06-1.04,4.06-2.86A2.429,2.429,0,0,0,161.04,474.56Zm-5.32-3.96h3.16c1.62,0,2.52.58,2.52,1.76s-.9,1.8-2.52,1.8h-3.16Zm3.34,8.28h-3.34v-3.66h3.48c1.78,0,2.58.58,2.58,1.84S160.84,478.88,159.06,478.88Zm11.06-9.48a6.68,6.68,0,0,0-4.28,1.42l.64,1.06a5.359,5.359,0,0,1,3.5-1.24c1.96,0,2.98.98,2.98,2.78v.64h-3.34c-3.02,0-4.06,1.36-4.06,2.98,0,1.82,1.46,3.06,3.84,3.06a3.95,3.95,0,0,0,3.62-1.74V480h1.36v-6.52C174.38,470.76,172.84,469.4,170.12,469.4Zm-.5,9.58c-1.68,0-2.66-.76-2.66-1.98,0-1.08.66-1.88,2.7-1.88h3.3v1.72A3.366,3.366,0,0,1,169.62,478.98Zm15.94-9.5h-9.38v1.26h3.98V480h1.42v-9.26h3.98Zm6.58,3.72-3.1-.04v-3.68h-1.42V480l4.24.02c2.8.04,4.32-1.22,4.32-3.46C196.18,474.4,194.78,473.22,192.14,473.2Zm-.36,5.74-2.74-.04v-4.68l2.74.04c1.96.02,2.96.74,2.96,2.3C194.74,478.14,193.72,478.96,191.78,478.94Zm7.12-3.14H200l.3-9.8h-1.68Zm.56,4.3a1.033,1.033,0,0,0,1.04-1.04,1,1,0,0,0-1.04-1.02,1.021,1.021,0,0,0-1.06,1.02A1.05,1.05,0,0,0,199.46,480.1Z" transform="translate(0.36 14)"/>
</svg>
