<svg xmlns="http://www.w3.org/2000/svg" width="262" height="38" viewBox="0 0 262 38">
  <defs>
    <style>
      .cls-1 {
        fill: #fff;
      }

      .cls-2 {
        fill: #28638b;
      }

      .cls-3 {
        fill: #335d7d;
      }
    </style>
  </defs>
  <g id="contact" transform="translate(-84 -482)">
    <rect id="Rectangle_2" data-name="Rectangle 2" class="cls-1" width="262" height="38" rx="19" transform="translate(84 482)"/>
    <path id="Rectangle_2_-_Outline" data-name="Rectangle 2 - Outline" class="cls-2" d="M19,1A18,18,0,0,0,6.272,31.728,17.882,17.882,0,0,0,19,37H243A18,18,0,0,0,255.728,6.272,17.882,17.882,0,0,0,243,1H19m0-1H243a19,19,0,0,1,0,38H19A19,19,0,0,1,19,0Z" transform="translate(84 482)"/>
    <path id="Path_13" data-name="Path 13" class="cls-3" d="M11.367-.586A8.214,8.214,0,0,1,7.5.234,6.236,6.236,0,0,1,2.715-1.689a7.1,7.1,0,0,1-1.8-5.049,7.44,7.44,0,0,1,2.021-5.43,6.861,6.861,0,0,1,5.127-2.07,8.22,8.22,0,0,1,3.3.576v1.748a6.694,6.694,0,0,0-3.32-.84,5.1,5.1,0,0,0-3.911,1.611,6.07,6.07,0,0,0-1.5,4.307,5.776,5.776,0,0,0,1.4,4.077A4.768,4.768,0,0,0,7.715-1.24a6.9,6.9,0,0,0,3.652-.937ZM14.219,0V-14H18.2a4.355,4.355,0,0,1,2.881.889A2.872,2.872,0,0,1,22.148-10.8,3.406,3.406,0,0,1,21.5-8.73a3.476,3.476,0,0,1-1.777,1.25v.039a3.563,3.563,0,0,1,2.266,1.069,3.289,3.289,0,0,1,.85,2.349,3.661,3.661,0,0,1-1.289,2.91A4.8,4.8,0,0,1,18.3,0Zm1.641-12.52V-8h1.68a3.19,3.19,0,0,0,2.119-.649,2.261,2.261,0,0,0,.771-1.831q0-2.041-2.686-2.041Zm0,6v5.039h2.227a3.336,3.336,0,0,0,2.241-.684,2.342,2.342,0,0,0,.8-1.875q0-2.48-3.379-2.48ZM33.818,0H32.178V-5.957H30.137a1.727,1.727,0,0,0-1.03.317,3.7,3.7,0,0,0-.952,1.421L26.4,0H24.443l2.129-4.678a4.319,4.319,0,0,1,.63-.972,2.373,2.373,0,0,1,.991-.728v-.039A3.658,3.658,0,0,1,26.021-7.7a3.68,3.68,0,0,1-.776-2.363,3.6,3.6,0,0,1,1.245-2.866A4.81,4.81,0,0,1,29.756-14h4.063ZM32.178-7.441V-12.52H29.9a3.218,3.218,0,0,0-2.153.654,2.294,2.294,0,0,0-.767,1.846,2.392,2.392,0,0,0,.781,1.885,3.048,3.048,0,0,0,2.1.693ZM36.6-.586V-2.363a6.14,6.14,0,0,0,3.721,1.2,3.683,3.683,0,0,0,2.407-.732,2.418,2.418,0,0,0,.894-1.973q0-2.7-3.643-2.7H38.525V-7.92h1.338a3.8,3.8,0,0,0,2.407-.674,2.285,2.285,0,0,0,.854-1.9,2.158,2.158,0,0,0-.708-1.689,2.814,2.814,0,0,0-1.948-.635,6.1,6.1,0,0,0-3.418,1.1v-1.66a7.183,7.183,0,0,1,3.555-.859,4.767,4.767,0,0,1,3.135.947,3.077,3.077,0,0,1,1.143,2.49,3.248,3.248,0,0,1-2.656,3.438v.039A3.558,3.558,0,0,1,44.521-6.24a3.223,3.223,0,0,1,.85,2.275A3.777,3.777,0,0,1,44-.9,5.672,5.672,0,0,1,40.264.234,6.828,6.828,0,0,1,36.6-.586ZM59.141,0H57.324L55.84-3.926H49.9L48.506,0H46.68l5.371-14h1.7ZM55.3-5.4l-2.2-5.967a5.713,5.713,0,0,1-.215-.937h-.039a5.231,5.231,0,0,1-.225.938L50.449-5.4Zm14.18-7.119H65.439V0H63.8V-12.52H59.766V-14h9.717ZM71.68,0V-14H73.32v5.938h2.656a4.8,4.8,0,0,1,3.252,1.011A3.607,3.607,0,0,1,80.391-4.18,3.949,3.949,0,0,1,79.17-1.123,4.729,4.729,0,0,1,75.84,0ZM73.32-6.582v5.1h2.3a3.332,3.332,0,0,0,2.246-.684,2.394,2.394,0,0,0,.791-1.914q0-2.5-3.037-2.5Zm19.414,6a8.214,8.214,0,0,1-3.867.82,6.236,6.236,0,0,1-4.785-1.924,7.1,7.1,0,0,1-1.8-5.049,7.44,7.44,0,0,1,2.021-5.43,6.861,6.861,0,0,1,5.127-2.07,8.22,8.22,0,0,1,3.3.576v1.748a6.694,6.694,0,0,0-3.32-.84A5.1,5.1,0,0,0,85.5-11.143,6.07,6.07,0,0,0,84-6.836a5.776,5.776,0,0,0,1.4,4.077A4.768,4.768,0,0,0,89.082-1.24a6.9,6.9,0,0,0,3.652-.937ZM103.721,0H102.08V-5.957h-2.041a1.727,1.727,0,0,0-1.03.317,3.7,3.7,0,0,0-.952,1.421L96.3,0H94.346l2.129-4.678a4.319,4.319,0,0,1,.63-.972,2.373,2.373,0,0,1,.991-.728v-.039A3.658,3.658,0,0,1,95.923-7.7a3.68,3.68,0,0,1-.776-2.363,3.6,3.6,0,0,1,1.245-2.866A4.81,4.81,0,0,1,99.658-14h4.063ZM102.08-7.441V-12.52H99.8a3.218,3.218,0,0,0-2.153.654,2.294,2.294,0,0,0-.767,1.846,2.392,2.392,0,0,0,.781,1.885,3.048,3.048,0,0,0,2.1.693ZM122.412-.586a8.214,8.214,0,0,1-3.867.82,6.236,6.236,0,0,1-4.785-1.924,7.1,7.1,0,0,1-1.8-5.049,7.44,7.44,0,0,1,2.021-5.43,6.861,6.861,0,0,1,5.127-2.07,8.22,8.22,0,0,1,3.3.576v1.748a6.694,6.694,0,0,0-3.32-.84,5.1,5.1,0,0,0-3.911,1.611,6.07,6.07,0,0,0-1.5,4.307,5.776,5.776,0,0,0,1.4,4.077A4.768,4.768,0,0,0,118.76-1.24a6.9,6.9,0,0,0,3.652-.937ZM141.27,0h-1.641V-6.387h-7.246V0h-1.641V-14h1.641v6.143h7.246V-14h1.641Zm14.512,0h-1.816L152.48-3.926h-5.937L145.146,0H143.32l5.371-14h1.7Zm-3.838-5.4-2.2-5.967a5.713,5.713,0,0,1-.215-.937h-.039a5.231,5.231,0,0,1-.225.938L147.09-5.4ZM172.119,0h-1.631V-9.395q0-1.113.137-2.725h-.039a8.71,8.71,0,0,1-.42,1.357L165.381,0h-.8L159.8-10.684a8.371,8.371,0,0,1-.42-1.436h-.039q.078.84.078,2.744V0h-1.582V-14h2.168l4.3,9.766a12.5,12.5,0,0,1,.645,1.68h.059q.42-1.152.674-1.719L170.068-14h2.051ZM187.09,0h-1.641V-10.117a12.819,12.819,0,0,1,.1-1.924h-.059a4.646,4.646,0,0,1-.449.879L177.832,0H175.8V-14h1.641v9.863a16.492,16.492,0,0,1-.078,2.061h.039a9.5,9.5,0,0,1,.547-.937L184.98-14h2.109Z" transform="translate(126 508)"/>
  </g>
</svg>
