<svg xmlns="http://www.w3.org/2000/svg" width="149" height="38" viewBox="0 0 149 38">
  <defs>
    <style>
      .cls-1 {
        fill: #fff;
      }

      .cls-2 {
        fill: #28638b;
      }

      .cls-3 {
        fill: #335d7d;
      }
    </style>
  </defs>
  <g id="home" transform="translate(-227 -107)">
    <rect id="Rectangle_1" data-name="Rectangle 1" class="cls-1" width="149" height="38" rx="19" transform="translate(227 107)"/>
    <path id="Rectangle_1_-_Outline" data-name="Rectangle 1 - Outline" class="cls-2" d="M19,1A18,18,0,0,0,6.272,31.728,17.882,17.882,0,0,0,19,37H130A18,18,0,0,0,142.728,6.272,17.882,17.882,0,0,0,130,1H19m0-1H130a19,19,0,0,1,0,38H19A19,19,0,0,1,19,0Z" transform="translate(227 107)"/>
    <path id="Path_11" data-name="Path 11" class="cls-3" d="M13.2,3.76H11.689V0H1.66V3.76H.146V-1.484H1.23a29.218,29.218,0,0,0,2.388-6A27.933,27.933,0,0,0,4.727-14h6.592v12.52H13.2ZM9.678-1.484V-12.52H6.123A27.633,27.633,0,0,1,5.049-6.875,28.917,28.917,0,0,1,3.008-1.484ZM21.348.234a6.147,6.147,0,0,1-4.771-1.963,7.28,7.28,0,0,1-1.792-5.107,7.714,7.714,0,0,1,1.826-5.391,6.378,6.378,0,0,1,4.971-2.012,6.009,6.009,0,0,1,4.673,1.953,7.307,7.307,0,0,1,1.772,5.107,7.739,7.739,0,0,1-1.816,5.42A6.26,6.26,0,0,1,21.348.234Zm.117-12.988a4.515,4.515,0,0,0-3.584,1.592A6.162,6.162,0,0,0,16.5-6.982a6.206,6.206,0,0,0,1.343,4.165,4.379,4.379,0,0,0,3.5,1.577,4.6,4.6,0,0,0,3.633-1.5,6.146,6.146,0,0,0,1.328-4.209A6.422,6.422,0,0,0,25.02-11.24,4.42,4.42,0,0,0,21.465-12.754ZM45.059,0H43.428V-9.395q0-1.113.137-2.725h-.039a8.711,8.711,0,0,1-.42,1.357L38.32,0h-.8L32.744-10.684a8.37,8.37,0,0,1-.42-1.436h-.039q.078.84.078,2.744V0H30.781V-14h2.168l4.3,9.766a12.5,12.5,0,0,1,.645,1.68h.059q.42-1.152.674-1.719L43.008-14h2.051Zm9.326.234a6.147,6.147,0,0,1-4.771-1.963,7.28,7.28,0,0,1-1.792-5.107,7.714,7.714,0,0,1,1.826-5.391,6.378,6.378,0,0,1,4.971-2.012,6.009,6.009,0,0,1,4.673,1.953,7.307,7.307,0,0,1,1.772,5.107,7.739,7.739,0,0,1-1.816,5.42A6.26,6.26,0,0,1,54.385.234ZM54.5-12.754a4.515,4.515,0,0,0-3.584,1.592,6.162,6.162,0,0,0-1.377,4.18,6.205,6.205,0,0,0,1.343,4.165,4.379,4.379,0,0,0,3.5,1.577,4.6,4.6,0,0,0,3.633-1.5,6.146,6.146,0,0,0,1.328-4.209,6.422,6.422,0,0,0-1.289-4.287A4.42,4.42,0,0,0,54.5-12.754ZM75.107,0H73.467V-10.117a12.82,12.82,0,0,1,.1-1.924h-.059a4.646,4.646,0,0,1-.449.879L65.85,0H63.818V-14h1.641v9.863a16.49,16.49,0,0,1-.078,2.061h.039a9.5,9.5,0,0,1,.547-.937L73-14h2.109Zm-2.07-18.262a3.125,3.125,0,0,1-1.108,2.173,3.65,3.65,0,0,1-2.407.8,3.593,3.593,0,0,1-2.417-.8,2.972,2.972,0,0,1-1.021-2.173h1.582a1.719,1.719,0,0,0,1.875,1.836,1.794,1.794,0,0,0,1.289-.483,2.206,2.206,0,0,0,.625-1.353Z" transform="translate(263 133)"/>
  </g>
</svg>
