<svg xmlns="http://www.w3.org/2000/svg" width="351.14" height="139.38" viewBox="0 0 351.14 139.38">
  <defs>
    <style>
      .cls-1 {
        fill: #335d7d;
      }
    </style>
  </defs>
  <path id="Path_1" data-name="Path 1" class="cls-1" d="M10.66,11.78a3.226,3.226,0,0,0,2.28-3.2C12.94,6.24,11.12,5,8.18,5H2.36V19h6.2c3.38,0,5.08-1.38,5.08-3.78A3.288,3.288,0,0,0,10.66,11.78ZM3.82,6.18H8.1c2.14,0,3.36.9,3.36,2.58,0,1.7-1.22,2.58-3.36,2.58H3.82ZM8.56,17.82H3.82V12.48H8.56c2.36,0,3.62.82,3.62,2.64C12.18,16.96,10.92,17.82,8.56,17.82ZM27.34,8.74a4.777,4.777,0,0,0-4.4,2.6c.14-3.36,1.5-4.86,4.48-5.52L31.86,4.8l-.24-1.3L26.9,4.58c-3.58.84-5.32,3.04-5.32,7.62,0,4.28,1.96,6.92,5.5,6.92a5.024,5.024,0,0,0,5.3-5.24A4.867,4.867,0,0,0,27.34,8.74Zm-.22,9.2a3.778,3.778,0,0,1-3.84-4.02,3.68,3.68,0,0,1,3.84-3.9,3.664,3.664,0,0,1,3.82,3.9A3.763,3.763,0,0,1,27.12,17.94ZM42.66,8.48,38.7,17.42,34.74,8.48H33.26l4.7,10.5L37.5,20c-.6,1.32-1.24,1.76-2.18,1.76a2.627,2.627,0,0,1-1.92-.8l-.66,1.06a3.6,3.6,0,0,0,2.56.96c1.5,0,2.62-.66,3.5-2.72L44.06,8.48Zm11.78,9.28V8.48H46.68L46.54,12c-.14,2.84-.4,5.66-1.96,5.76h-.6v3.78h1.34V19h9.42v2.54h1.34V17.76Zm-6.6-5.68.12-2.34h5.06v8.02H46.46C47.52,16.96,47.74,14.48,47.84,12.08Zm18.54-3.6-3.96,8.94L58.46,8.48H56.98l4.7,10.5L61.22,20c-.6,1.32-1.24,1.76-2.18,1.76a2.627,2.627,0,0,1-1.92-.8l-.66,1.06a3.6,3.6,0,0,0,2.56.96c1.5,0,2.62-.66,3.5-2.72L67.78,8.48Zm18.14,9.28V8.48H83.1v9.28H78V8.48H76.58v9.28H71.42V8.48H70V19H84.8v2.3h1.34V17.76ZM97.8,13.74A5.013,5.013,0,0,0,92.7,8.4a5.067,5.067,0,0,0-5.14,5.34,5.562,5.562,0,0,0,9.58,3.64l-.8-.92a4.147,4.147,0,0,1-3.22,1.38,3.894,3.894,0,0,1-4.14-3.66h8.8C97.78,14.02,97.8,13.86,97.8,13.74ZM92.7,9.62a3.659,3.659,0,0,1,3.74,3.5H88.98A3.654,3.654,0,0,1,92.7,9.62Zm18.68-1.14-4.54,7.58-4.46-7.58h-1.44V19h1.3V10.66l4.26,7.06h.64l4.26-7.04V19h1.3V8.48Zm15.7.26a4.777,4.777,0,0,0-4.4,2.6c.14-3.36,1.5-4.86,4.48-5.52L131.6,4.8l-.24-1.3-4.72,1.08c-3.58.84-5.32,3.04-5.32,7.62,0,4.28,1.96,6.92,5.5,6.92a5.024,5.024,0,0,0,5.3-5.24A4.867,4.867,0,0,0,127.08,8.74Zm-.22,9.2a3.778,3.778,0,0,1-3.84-4.02,3.831,3.831,0,1,1,7.66,0A3.763,3.763,0,0,1,126.86,17.94ZM142.4,8.48l-3.96,8.94-3.96-8.94H133l4.7,10.5L137.24,20c-.6,1.32-1.24,1.76-2.18,1.76a2.627,2.627,0,0,1-1.92-.8l-.66,1.06a3.6,3.6,0,0,0,2.56.96c1.5,0,2.62-.66,3.5-2.72L143.8,8.48Zm11.78,9.28V8.48h-7.76L146.28,12c-.14,2.84-.4,5.66-1.96,5.76h-.6v3.78h1.34V19h9.42v2.54h1.34V17.76Zm-6.6-5.68.12-2.34h5.06v8.02H146.2C147.26,16.96,147.48,14.48,147.58,12.08Zm18.54-3.6-3.96,8.94L158.2,8.48h-1.48l4.7,10.5L160.96,20c-.6,1.32-1.24,1.76-2.18,1.76a2.627,2.627,0,0,1-1.92-.8l-.66,1.06a3.6,3.6,0,0,0,2.56.96c1.5,0,2.62-.66,3.5-2.72l5.26-11.78Zm11.06,0H167.8V9.74h3.98V19h1.42V9.74h3.98Zm15.92,9.28V8.48h-7.76L185.2,12c-.14,2.84-.4,5.66-1.96,5.76h-.6v3.78h1.34V19h9.42v2.54h1.34V17.76Zm-6.6-5.68.12-2.34h5.06v8.02h-6.56C186.18,16.96,186.4,14.48,186.5,12.08Zm15.34,7.02a5.175,5.175,0,0,0,5.34-5.36,5.35,5.35,0,0,0-10.7,0A5.191,5.191,0,0,0,201.84,19.1Zm0-1.26a3.852,3.852,0,0,1-3.92-4.1,3.914,3.914,0,1,1,7.82,0A3.836,3.836,0,0,1,201.84,17.84Zm12.78,1.26a4.638,4.638,0,0,0,4.12-2.08l-1.06-.72a3.558,3.558,0,0,1-3.06,1.54,3.854,3.854,0,0,1-3.98-4.1,3.865,3.865,0,0,1,3.98-4.1,3.576,3.576,0,0,1,3.06,1.56l1.06-.72a4.6,4.6,0,0,0-4.12-2.08,5.178,5.178,0,0,0-5.42,5.34A5.194,5.194,0,0,0,214.62,19.1ZM228.68,8.48H219.3V9.74h3.98V19h1.42V9.74h3.98Zm9.64,0-3.96,8.94L230.4,8.48h-1.48l4.7,10.5L233.16,20c-.6,1.32-1.24,1.76-2.18,1.76a2.627,2.627,0,0,1-1.92-.8l-.66,1.06a3.6,3.6,0,0,0,2.56.96c1.5,0,2.62-.66,3.5-2.72l5.26-11.78Zm3.62,0V19h1.42V9.74h6.6V19h1.42V8.48ZM255.42,19h1.42V14.36h6.62V19h1.42V8.48h-1.42v4.66h-6.62V8.48h-1.42Zm17.92-6.8-3-.04V8.48h-1.42V19l4.16.02c2.78.04,4.32-1.22,4.32-3.46C277.4,13.4,275.98,12.22,273.34,12.2Zm5.82,6.8h1.42V8.48h-1.42ZM273,17.94l-2.66-.04V13.22l2.66.04c1.96.02,2.96.74,2.96,2.3C275.96,17.14,274.94,17.96,273,17.94ZM289.86,19h1.42V14.36h6.62V19h1.42V8.48H297.9v4.66h-6.62V8.48h-1.42Zm17.84.1a5.175,5.175,0,0,0,5.34-5.36,5.35,5.35,0,0,0-10.7,0A5.191,5.191,0,0,0,307.7,19.1Zm0-1.26a3.852,3.852,0,0,1-3.92-4.1,3.914,3.914,0,1,1,7.82,0A3.836,3.836,0,0,1,307.7,17.84Zm15.08-4.28a2.437,2.437,0,0,0,1.78-2.38c0-1.74-1.46-2.7-3.84-2.7h-4.64V19h4.78c2.74,0,4.06-1.04,4.06-2.86A2.429,2.429,0,0,0,322.78,13.56ZM317.46,9.6h3.16c1.62,0,2.52.58,2.52,1.76s-.9,1.8-2.52,1.8h-3.16Zm3.34,8.28h-3.34V14.22h3.48c1.78,0,2.58.58,2.58,1.84S322.58,17.88,320.8,17.88Zm11.86-5.68-3-.04V8.48h-1.42V19l4.16.02c2.78.04,4.32-1.22,4.32-3.46C336.72,13.4,335.3,12.22,332.66,12.2Zm5.82,6.8h1.42V8.48h-1.42Zm-6.16-1.06-2.66-.04V13.22l2.66.04c1.96.02,2.96.74,2.96,2.3C335.28,17.14,334.26,17.96,332.32,17.94Zm20.84-4.2a5.013,5.013,0,0,0-5.1-5.34,5.067,5.067,0,0,0-5.14,5.34,5.562,5.562,0,0,0,9.58,3.64l-.8-.92a4.147,4.147,0,0,1-3.22,1.38,3.894,3.894,0,0,1-4.14-3.66h8.8C353.14,14.02,353.16,13.86,353.16,13.74Zm-5.1-4.12a3.659,3.659,0,0,1,3.74,3.5h-7.46A3.654,3.654,0,0,1,348.06,9.62ZM7.44,32.4a4.582,4.582,0,0,0-4.06,2.16V32.48H2.02v14.4H3.44V41.02a4.6,4.6,0,0,0,4,2.08,5.1,5.1,0,0,0,5.24-5.36A5.089,5.089,0,0,0,7.44,32.4Zm-.1,9.44a3.852,3.852,0,0,1-3.92-4.1,3.863,3.863,0,0,1,3.92-4.1,3.874,3.874,0,0,1,3.92,4.1A3.863,3.863,0,0,1,7.34,41.84ZM19.3,32.4a6.68,6.68,0,0,0-4.28,1.42l.64,1.06a5.359,5.359,0,0,1,3.5-1.24c1.96,0,2.98.98,2.98,2.78v.64H18.8c-3.02,0-4.06,1.36-4.06,2.98,0,1.82,1.46,3.06,3.84,3.06a3.95,3.95,0,0,0,3.62-1.74V43h1.36V36.48C23.56,33.76,22.02,32.4,19.3,32.4Zm-.5,9.58c-1.68,0-2.66-.76-2.66-1.98,0-1.08.66-1.88,2.7-1.88h3.3v1.72A3.366,3.366,0,0,1,18.8,41.98Zm13.44-4.46a2.579,2.579,0,0,0,2.04-2.34c0-1.72-1.84-2.82-4.24-2.82a8.347,8.347,0,0,0-3.9.98l.4,1.1a7.357,7.357,0,0,1,3.36-.86c1.68,0,2.92.64,2.92,1.8,0,1.04-1.08,1.66-2.62,1.66H28.48v1.04h1.8c1.76,0,2.84.66,2.84,1.78,0,1.28-1.42,2.04-3.32,2.04a6.181,6.181,0,0,1-3.62-1.14l-.48,1.06a6.951,6.951,0,0,0,4.16,1.3c2.62,0,4.72-1.24,4.72-3.14C34.58,38.74,33.72,37.86,32.24,37.52Zm14.18,4.24V32.48H38.66L38.52,36c-.14,2.84-.4,5.66-1.96,5.76h-.6v3.78H37.3V43h9.42v2.54h1.34V41.76Zm-6.6-5.68.12-2.34H45v8.02H38.44C39.5,40.96,39.72,38.48,39.82,36.08Zm20.22,1.66a5.013,5.013,0,0,0-5.1-5.34,5.067,5.067,0,0,0-5.14,5.34,5.562,5.562,0,0,0,9.58,3.64l-.8-.92a4.147,4.147,0,0,1-3.22,1.38,3.894,3.894,0,0,1-4.14-3.66h8.8C60.02,38.02,60.04,37.86,60.04,37.74Zm-5.1-4.12a3.659,3.659,0,0,1,3.74,3.5H51.22A3.654,3.654,0,0,1,54.94,33.62Zm8.92-1.14-.18,3.76c-.14,2.78-.3,5.6-2.04,5.6a2.57,2.57,0,0,1-.5-.08l-.1,1.22a3.976,3.976,0,0,0,1.02.16c2.26,0,2.72-3.12,2.9-6.8l.14-2.6h5.04V43h1.42V32.48ZM80.02,36.2l-3-.04V32.48H75.6V43l4.16.02c2.78.04,4.32-1.22,4.32-3.46C84.08,37.4,82.66,36.22,80.02,36.2ZM85.84,43h1.42V32.48H85.84Zm-6.16-1.06-2.66-.04V37.22l2.66.04c1.96.02,2.96.74,2.96,2.3C82.64,41.14,81.62,41.96,79.68,41.94ZM91.4,43.1A1.093,1.093,0,0,0,92.48,42a1.075,1.075,0,0,0-1.08-1.08A1.059,1.059,0,0,0,90.34,42,1.076,1.076,0,0,0,91.4,43.1ZM10.66,59.78a3.226,3.226,0,0,0,2.28-3.2c0-2.34-1.82-3.58-4.76-3.58H2.36V67h6.2c3.38,0,5.08-1.38,5.08-3.78A3.288,3.288,0,0,0,10.66,59.78Zm-6.84-5.6H8.1c2.14,0,3.36.9,3.36,2.58,0,1.7-1.22,2.58-3.36,2.58H3.82ZM8.56,65.82H3.82V60.48H8.56c2.36,0,3.62.82,3.62,2.64C12.18,64.96,10.92,65.82,8.56,65.82ZM21.4,67.1a4.638,4.638,0,0,0,4.12-2.08l-1.06-.72a3.558,3.558,0,0,1-3.06,1.54,4.1,4.1,0,0,1,0-8.2,3.576,3.576,0,0,1,3.06,1.56l1.06-.72A4.6,4.6,0,0,0,21.4,56.4a5.35,5.35,0,1,0,0,10.7Zm15.9-5.36a5.013,5.013,0,0,0-5.1-5.34,5.067,5.067,0,0,0-5.14,5.34,5.21,5.21,0,0,0,5.52,5.36,5.178,5.178,0,0,0,4.06-1.72l-.8-.92a4.147,4.147,0,0,1-3.22,1.38,3.894,3.894,0,0,1-4.14-3.66h8.8C37.28,62.02,37.3,61.86,37.3,61.74Zm-5.1-4.12a3.659,3.659,0,0,1,3.74,3.5H28.48A3.654,3.654,0,0,1,32.2,57.62ZM53.38,67h1.68l-4.44-5.42,4.14-5.1H53.22l-3.7,4.62H47.1V56.48H45.68V67H47.1V62.32h2.4Zm11.1-10.52H55.1v1.26h3.98V67H60.5V57.74h3.98ZM70.4,67.1a5.35,5.35,0,1,0-5.36-5.36A5.175,5.175,0,0,0,70.4,67.1Zm0-1.26a4.105,4.105,0,1,1,3.9-4.1A3.852,3.852,0,0,1,70.4,65.84ZM89.44,56.4a4.582,4.582,0,0,0-4.06,2.16V56.48H84.02v14.4h1.42V65.02a4.6,4.6,0,0,0,4,2.08,5.351,5.351,0,0,0,0-10.7Zm-.1,9.44a4.1,4.1,0,1,1,3.92-4.1A3.852,3.852,0,0,1,89.34,65.84ZM101.3,56.4a6.68,6.68,0,0,0-4.28,1.42l.64,1.06a5.359,5.359,0,0,1,3.5-1.24c1.96,0,2.98.98,2.98,2.78v.64H100.8c-3.02,0-4.06,1.36-4.06,2.98,0,1.82,1.46,3.06,3.84,3.06a3.95,3.95,0,0,0,3.62-1.74V67h1.36V60.48C105.56,57.76,104.02,56.4,101.3,56.4Zm-.5,9.58c-1.68,0-2.66-.76-2.66-1.98,0-1.08.66-1.88,2.7-1.88h3.3v1.72A3.366,3.366,0,0,1,100.8,65.98Zm13.44-4.46a2.579,2.579,0,0,0,2.04-2.34c0-1.72-1.84-2.82-4.24-2.82a8.347,8.347,0,0,0-3.9.98l.4,1.1a7.357,7.357,0,0,1,3.36-.86c1.68,0,2.92.64,2.92,1.8,0,1.04-1.08,1.66-2.62,1.66h-1.72v1.04h1.8c1.76,0,2.84.66,2.84,1.78,0,1.28-1.42,2.04-3.32,2.04a6.181,6.181,0,0,1-3.62-1.14l-.48,1.06a6.951,6.951,0,0,0,4.16,1.3c2.62,0,4.72-1.24,4.72-3.14C116.58,62.74,115.72,61.86,114.24,61.52Zm10.66-4.78a4.777,4.777,0,0,0-4.4,2.6c.14-3.36,1.5-4.86,4.48-5.52l4.44-1.02-.24-1.3-4.72,1.08c-3.58.84-5.32,3.04-5.32,7.62,0,4.28,1.96,6.92,5.5,6.92a5.024,5.024,0,0,0,5.3-5.24A4.867,4.867,0,0,0,124.9,56.74Zm-.22,9.2a3.778,3.778,0,0,1-3.84-4.02,3.831,3.831,0,1,1,7.66,0A3.763,3.763,0,0,1,124.68,65.94Zm8.3,1.06h1.28l7-8.36V67h1.42V56.48h-1.26l-7.02,8.36V56.48h-1.42Zm19.18-10.6a4.582,4.582,0,0,0-4.06,2.16V56.48h-1.36v14.4h1.42V65.02a4.6,4.6,0,0,0,4,2.08,5.351,5.351,0,0,0,0-10.7Zm-.1,9.44a4.1,4.1,0,1,1,3.92-4.1A3.852,3.852,0,0,1,152.06,65.84Zm11.96-9.44a6.68,6.68,0,0,0-4.28,1.42l.64,1.06a5.359,5.359,0,0,1,3.5-1.24c1.96,0,2.98.98,2.98,2.78v.64h-3.34c-3.02,0-4.06,1.36-4.06,2.98,0,1.82,1.46,3.06,3.84,3.06a3.95,3.95,0,0,0,3.62-1.74V67h1.36V60.48C168.28,57.76,166.74,56.4,164.02,56.4Zm-.5,9.58c-1.68,0-2.66-.76-2.66-1.98,0-1.08.66-1.88,2.7-1.88h3.3v1.72A3.366,3.366,0,0,1,163.52,65.98Zm17.76-4.24a5.013,5.013,0,0,0-5.1-5.34,5.067,5.067,0,0,0-5.14,5.34,5.562,5.562,0,0,0,9.58,3.64l-.8-.92a4.147,4.147,0,0,1-3.22,1.38,3.894,3.894,0,0,1-4.14-3.66h8.8C181.26,62.02,181.28,61.86,181.28,61.74Zm-5.1-4.12a3.659,3.659,0,0,1,3.74,3.5h-7.46A3.654,3.654,0,0,1,176.18,57.62Zm15.18-1.14h-9.38v1.26h3.98V67h1.42V57.74h3.98Zm5.98,10.62a4.638,4.638,0,0,0,4.12-2.08l-1.06-.72a3.558,3.558,0,0,1-3.06,1.54,4.1,4.1,0,0,1,0-8.2,3.576,3.576,0,0,1,3.06,1.56l1.06-.72a4.6,4.6,0,0,0-4.12-2.08,5.35,5.35,0,1,0,0,10.7ZM207.5,56.48c-2.72,0-4.48,1.2-4.48,3.6a3.138,3.138,0,0,0,2.54,3.24L202.94,67h1.54l2.44-3.48h3.7V67h1.3V56.48Zm-3.04,3.64c0-1.68,1.12-2.38,3.08-2.38h3.08v4.72h-3.18C205.48,62.46,204.46,61.72,204.46,60.12Zm23.44,1.44a2.437,2.437,0,0,0,1.78-2.38c0-1.74-1.46-2.7-3.84-2.7H221.2V67h4.78c2.74,0,4.06-1.04,4.06-2.86A2.429,2.429,0,0,0,227.9,61.56Zm-5.32-3.96h3.16c1.62,0,2.52.58,2.52,1.76s-.9,1.8-2.52,1.8h-3.16Zm3.34,8.28h-3.34V62.22h3.48c1.78,0,2.58.58,2.58,1.84S227.7,65.88,225.92,65.88ZM243,67.1a4.638,4.638,0,0,0,4.12-2.08l-1.06-.72A3.558,3.558,0,0,1,243,65.84a4.1,4.1,0,0,1,0-8.2,3.576,3.576,0,0,1,3.06,1.56l1.06-.72A4.6,4.6,0,0,0,243,56.4a5.35,5.35,0,1,0,0,10.7Zm11.02,0a5.35,5.35,0,1,0-5.36-5.36A5.175,5.175,0,0,0,254.02,67.1Zm0-1.26a4.105,4.105,0,1,1,3.9-4.1A3.852,3.852,0,0,1,254.02,65.84Zm13.42-4.32a2.579,2.579,0,0,0,2.04-2.34c0-1.72-1.84-2.82-4.24-2.82a8.347,8.347,0,0,0-3.9.98l.4,1.1a7.357,7.357,0,0,1,3.36-.86c1.68,0,2.92.64,2.92,1.8,0,1.04-1.08,1.66-2.62,1.66h-1.72v1.04h1.8c1.76,0,2.84.66,2.84,1.78,0,1.28-1.42,2.04-3.32,2.04a6.181,6.181,0,0,1-3.62-1.14l-.48,1.06a6.951,6.951,0,0,0,4.16,1.3c2.62,0,4.72-1.24,4.72-3.14C269.78,62.74,268.92,61.86,267.44,61.52Zm14.18,4.24V56.48h-7.76L273.72,60c-.14,2.84-.4,5.66-1.96,5.76h-.6v3.78h1.34V67h9.42v2.54h1.34V65.76Zm-6.6-5.68.12-2.34h5.06v8.02h-6.56C274.7,64.96,274.92,62.48,275.02,60.08Zm14.62-3.68a6.68,6.68,0,0,0-4.28,1.42l.64,1.06a5.359,5.359,0,0,1,3.5-1.24c1.96,0,2.98.98,2.98,2.78v.64h-3.34c-3.02,0-4.06,1.36-4.06,2.98,0,1.82,1.46,3.06,3.84,3.06a3.95,3.95,0,0,0,3.62-1.74V67h1.36V60.48C293.9,57.76,292.36,56.4,289.64,56.4Zm-.5,9.58c-1.68,0-2.66-.76-2.66-1.98,0-1.08.66-1.88,2.7-1.88h3.3v1.72A3.366,3.366,0,0,1,289.14,65.98ZM297.68,67h1.42V62.36h6.62V67h1.42V56.48h-1.42v4.66H299.1V56.48h-1.42Zm13.5,0h1.28l7-8.36V67h1.42V56.48h-1.26l-7.02,8.36V56.48h-1.42Zm13.76,0h1.28l7-8.36V67h1.42V56.48h-1.26l-7.02,8.36V56.48h-1.42ZM2.02,91H3.3l7-8.36V91h1.42V80.48H10.46L3.44,88.84V80.48H2.02Zm13.76,0H17.2V86.36h6.62V91h1.42V80.48H23.82v4.66H17.2V80.48H15.78Zm26.2-5.28c0-3.24-2.28-5.14-6.2-5.32V76.16H34.4V80.4c-3.92.16-6.16,2.06-6.16,5.32,0,3.3,2.26,5.24,6.16,5.4v3.76h1.38V91.1C39.7,90.94,41.98,89.02,41.98,85.72Zm-12.34,0c0-2.44,1.64-3.9,4.76-4.06v8.2C31.28,89.68,29.64,88.22,29.64,85.72Zm6.14,4.14v-8.2c3.14.16,4.8,1.6,4.8,4.06C40.58,88.24,38.92,89.7,35.78,89.86ZM49.32,91.1a5.35,5.35,0,1,0-5.36-5.36A5.175,5.175,0,0,0,49.32,91.1Zm0-1.26a4.105,4.105,0,1,1,3.9-4.1A3.852,3.852,0,0,1,49.32,89.84Zm13.8-9.44a4.582,4.582,0,0,0-4.06,2.16V80.48H57.7v14.4h1.42V89.02a4.6,4.6,0,0,0,4,2.08,5.351,5.351,0,0,0,0-10.7Zm-.1,9.44a4.1,4.1,0,1,1,3.92-4.1A3.852,3.852,0,0,1,63.02,89.84Zm18.84-9.36-4.54,7.58-4.46-7.58H71.42V91h1.3V82.66l4.26,7.06h.64l4.26-7.04V91h1.3V80.48Zm8.98-.08a6.68,6.68,0,0,0-4.28,1.42l.64,1.06a5.359,5.359,0,0,1,3.5-1.24c1.96,0,2.98.98,2.98,2.78v.64H90.34c-3.02,0-4.06,1.36-4.06,2.98,0,1.82,1.46,3.06,3.84,3.06a3.95,3.95,0,0,0,3.62-1.74V91H95.1V84.48C95.1,81.76,93.56,80.4,90.84,80.4Zm-.5,9.58c-1.68,0-2.66-.76-2.66-1.98,0-1.08.66-1.88,2.7-1.88h3.3v1.72A3.366,3.366,0,0,1,90.34,89.98Zm17.8-.22V80.48h-1.42v9.28H100.3V80.48H98.88V91h9.62v2.64h1.34V89.76ZM112.56,91h1.28l7-8.36V91h1.42V80.48H121l-7.02,8.36V80.48h-1.42Zm18.1.1a5.35,5.35,0,1,0-5.36-5.36A5.175,5.175,0,0,0,130.66,91.1Zm0-1.26a4.105,4.105,0,1,1,3.9-4.1A3.852,3.852,0,0,1,130.66,89.84ZM139.04,91h1.42V86.36h6.62V91h1.42V80.48h-1.42v4.66h-6.62V80.48h-1.42Zm13.5,0h1.42V86.36h6.62V91H162V80.48h-1.42v4.66h-6.62V80.48h-1.42Zm17.92-6.8-3-.04V80.48h-1.42V91l4.16.02c2.78.04,4.32-1.22,4.32-3.46C174.52,85.4,173.1,84.22,170.46,84.2Zm5.82,6.8h1.42V80.48h-1.42Zm-6.16-1.06-2.66-.04V85.22l2.66.04c1.96.02,2.96.74,2.96,2.3C173.08,89.14,172.06,89.96,170.12,89.94ZM189.94,91l-4.2-5.4,3.96-5.12h-1.56l-3.16,4.12-3.16-4.12h-1.6l3.96,5.12L180.02,91h1.6l3.36-4.4,3.34,4.4Zm11.96.1a4.638,4.638,0,0,0,4.12-2.08l-1.06-.72a3.558,3.558,0,0,1-3.06,1.54,4.1,4.1,0,0,1,0-8.2,3.576,3.576,0,0,1,3.06,1.56l1.06-.72a4.6,4.6,0,0,0-4.12-2.08,5.35,5.35,0,1,0,0,10.7Zm6.86-.1h1.28l7-8.36V91h1.42V80.48H217.2l-7.02,8.36V80.48h-1.42Zm18.16.1a4.638,4.638,0,0,0,4.12-2.08l-1.06-.72a3.558,3.558,0,0,1-3.06,1.54,4.1,4.1,0,0,1,0-8.2,3.576,3.576,0,0,1,3.06,1.56l1.06-.72a4.6,4.6,0,0,0-4.12-2.08,5.35,5.35,0,1,0,0,10.7Zm14.06-10.62H231.6v1.26h3.98V91H237V81.74h3.98Zm10.8,5.26a5.013,5.013,0,0,0-5.1-5.34,5.067,5.067,0,0,0-5.14,5.34,5.562,5.562,0,0,0,9.58,3.64l-.8-.92a4.147,4.147,0,0,1-3.22,1.38,3.894,3.894,0,0,1-4.14-3.66h8.8C251.76,86.02,251.78,85.86,251.78,85.74Zm-5.1-4.12a3.659,3.659,0,0,1,3.74,3.5h-7.46A3.654,3.654,0,0,1,246.68,81.62Zm18.68-1.14-4.54,7.58-4.46-7.58h-1.44V91h1.3V82.66l4.26,7.06h.64l4.26-7.04V91h1.3V80.48Zm-263.34,24V115H3.44v-9.26h6.6V115h1.42V104.48Zm18.9-.08a4.582,4.582,0,0,0-4.06,2.16v-2.08H15.5v14.4h1.42v-5.86a4.6,4.6,0,0,0,4,2.08,5.351,5.351,0,0,0,0-10.7Zm-.1,9.44a4.1,4.1,0,1,1,3.92-4.1A3.852,3.852,0,0,1,20.82,113.84Zm12.74,1.26a5.35,5.35,0,0,0,0-10.7,5.35,5.35,0,1,0,0,10.7Zm0-1.26a4.105,4.105,0,1,1,3.9-4.1A3.852,3.852,0,0,1,33.56,113.84Zm12.78,1.26a4.638,4.638,0,0,0,4.12-2.08l-1.06-.72a3.558,3.558,0,0,1-3.06,1.54,4.1,4.1,0,0,1,0-8.2,3.576,3.576,0,0,1,3.06,1.56l1.06-.72a4.6,4.6,0,0,0-4.12-2.08,5.35,5.35,0,1,0,0,10.7Zm6.86-.1h1.28l7-8.36V115H62.9V104.48H61.64l-7.02,8.36v-8.36H53.2Zm24.2-10.52-4.54,7.58-4.46-7.58H66.96V115h1.3v-8.34l4.26,7.06h.64l4.26-7.04V115h1.3V104.48Zm10.6,0V115h1.42v-9.26h6.6V115h1.42V104.48Zm18.9-.08a4.582,4.582,0,0,0-4.06,2.16v-2.08h-1.36v14.4h1.42v-5.86a4.6,4.6,0,0,0,4,2.08,5.351,5.351,0,0,0,0-10.7Zm-.1,9.44a4.1,4.1,0,1,1,3.92-4.1A3.852,3.852,0,0,1,106.8,113.84Zm8.4,1.16h1.28l7-8.36V115h1.42V104.48h-1.26l-7.02,8.36v-8.36H115.2Zm18.16.1a4.638,4.638,0,0,0,4.12-2.08l-1.06-.72a3.558,3.558,0,0,1-3.06,1.54,4.1,4.1,0,0,1,0-8.2,3.576,3.576,0,0,1,3.06,1.56l1.06-.72a4.6,4.6,0,0,0-4.12-2.08,5.35,5.35,0,1,0,0,10.7Zm11.02,0a5.35,5.35,0,1,0-5.36-5.36A5.175,5.175,0,0,0,144.38,115.1Zm0-1.26a4.105,4.105,0,1,1,3.9-4.1A3.852,3.852,0,0,1,144.38,113.84Zm17.6-4.1a5.013,5.013,0,0,0-5.1-5.34,5.067,5.067,0,0,0-5.14,5.34,5.562,5.562,0,0,0,9.58,3.64l-.8-.92a4.147,4.147,0,0,1-3.22,1.38,3.894,3.894,0,0,1-4.14-3.66h8.8C161.96,110.02,161.98,109.86,161.98,109.74Zm-5.1-4.12a3.659,3.659,0,0,1,3.74,3.5h-7.46A3.654,3.654,0,0,1,156.88,105.62Zm16.64,8.14v-9.28h-7.76l-.14,3.52c-.14,2.84-.4,5.66-1.96,5.76h-.6v3.78h1.34V115h9.42v2.54h1.34v-3.78Zm-6.6-5.68.12-2.34h5.06v8.02h-6.56C166.6,112.96,166.82,110.48,166.92,108.08Zm11,6.92h1.28l7-8.36V115h1.42V104.48h-1.26l-7.02,8.36v-8.36h-1.42Zm13.76,0h1.42v-4.64h6.62V115h1.42V104.48h-1.42v4.66H193.1v-4.66h-1.42Zm13.5,0h1.28l7-8.36V115h1.42V104.48h-1.26l-7.02,8.36v-8.36h-1.42Zm21.16-10.52h-9.38v1.26h3.98V115h1.42v-9.26h3.98Zm6.58,3.72-3.1-.04v-3.68H228.4V115l4.24.02c2.8.04,4.32-1.22,4.32-3.46C236.96,109.4,235.56,108.22,232.92,108.2Zm-.36,5.74-2.74-.04v-4.68l2.74.04c1.96.02,2.96.74,2.96,2.3C235.52,113.14,234.5,113.96,232.56,113.94Zm11.5,1.16a4.638,4.638,0,0,0,4.12-2.08l-1.06-.72a3.558,3.558,0,0,1-3.06,1.54,4.1,4.1,0,0,1,0-8.2,3.576,3.576,0,0,1,3.06,1.56l1.06-.72a4.6,4.6,0,0,0-4.12-2.08,5.35,5.35,0,1,0,0,10.7Zm10.16-10.62c-2.72,0-4.48,1.2-4.48,3.6a3.138,3.138,0,0,0,2.54,3.24L249.66,115h1.54l2.44-3.48h3.7V115h1.3V104.48Zm-3.04,3.64c0-1.68,1.12-2.38,3.08-2.38h3.08v4.72h-3.18C252.2,110.46,251.18,109.72,251.18,108.12Zm25.36,5.64v-9.28h-7.76l-.14,3.52c-.14,2.84-.4,5.66-1.96,5.76h-.6v3.78h1.34V115h9.42v2.54h1.34v-3.78Zm-6.6-5.68.12-2.34h5.06v8.02h-6.56C269.62,112.96,269.84,110.48,269.94,108.08Zm11.9-3.6-.18,3.76c-.14,2.78-.3,5.6-2.04,5.6a2.57,2.57,0,0,1-.5-.08l-.1,1.22a3.976,3.976,0,0,0,1.02.16c2.26,0,2.72-3.12,2.9-6.8l.14-2.6h5.04V115h1.42V104.48Zm15.4,0c-2.72,0-4.48,1.2-4.48,3.6a3.138,3.138,0,0,0,2.54,3.24L292.68,115h1.54l2.44-3.48h3.7V115h1.3V104.48Zm-3.04,3.64c0-1.68,1.12-2.38,3.08-2.38h3.08v4.72h-3.18C295.22,110.46,294.2,109.72,294.2,108.12ZM2.02,128.48V139H3.44v-9.26h6.6V139h1.42V128.48ZM19.84,139.1a5.35,5.35,0,0,0,0-10.7,5.35,5.35,0,1,0,0,10.7Zm0-1.26a4.105,4.105,0,1,1,3.9-4.1A3.852,3.852,0,0,1,19.84,137.84Zm18.82-9.36-4.54,7.58-4.46-7.58H28.22V139h1.3v-8.34l4.26,7.06h.64l4.26-7.04V139h1.3V128.48Zm9.7,10.62A5.35,5.35,0,1,0,43,133.74,5.175,5.175,0,0,0,48.36,139.1Zm0-1.26a4.105,4.105,0,1,1,3.9-4.1A3.852,3.852,0,0,1,48.36,137.84Zm22.9-.08v-9.28H69.84v9.28h-5.1v-9.28H63.32v9.28H58.16v-9.28H56.74V139h14.8v2.3h1.34v-3.54ZM75.32,139H76.6l7-8.36V139h1.42V128.48H83.76l-7.02,8.36v-8.36H75.32Zm19,0h1.42v-4.64h6.62V139h1.42V128.48h-1.42v4.66H95.74v-4.66H94.32Zm17.12-10.6a6.68,6.68,0,0,0-4.28,1.42l.64,1.06a5.359,5.359,0,0,1,3.5-1.24c1.96,0,2.98.98,2.98,2.78v.64h-3.34c-3.02,0-4.06,1.36-4.06,2.98,0,1.82,1.46,3.06,3.84,3.06a3.95,3.95,0,0,0,3.62-1.74V139h1.36v-6.52C115.7,129.76,114.16,128.4,111.44,128.4Zm-.5,9.58c-1.68,0-2.66-.76-2.66-1.98,0-1.08.66-1.88,2.7-1.88h3.3v1.72A3.366,3.366,0,0,1,110.94,137.98Zm21.64-9.5v9.28h-5.1v-9.28h-1.42v9.28H120.9v-9.28h-1.42V139H134V128.48Zm14.7,5.26a5.013,5.013,0,0,0-5.1-5.34,5.067,5.067,0,0,0-5.14,5.34,5.562,5.562,0,0,0,9.58,3.64l-.8-.92a4.147,4.147,0,0,1-3.22,1.38,3.894,3.894,0,0,1-4.14-3.66h8.8C147.26,134.02,147.28,133.86,147.28,133.74Zm-5.1-4.12a3.659,3.659,0,0,1,3.74,3.5h-7.46A3.654,3.654,0,0,1,142.18,129.62Zm13.02-2.64c1.78,0,2.96-.92,3-2.6h-1.02a1.791,1.791,0,0,1-1.98,1.72,1.762,1.762,0,0,1-1.96-1.72h-1.02C152.26,126.06,153.42,126.98,155.2,126.98ZM150.42,139h1.28l7-8.36V139h1.42V128.48h-1.26l-7.02,8.36v-8.36h-1.42Zm28.26-1.24v-9.28h-1.42v9.28h-6.42v-9.28h-1.42V139h9.62v2.64h1.34v-3.88Zm13.64-4.02a5.013,5.013,0,0,0-5.1-5.34,5.067,5.067,0,0,0-5.14,5.34,5.562,5.562,0,0,0,9.58,3.64l-.8-.92a4.147,4.147,0,0,1-3.22,1.38,3.894,3.894,0,0,1-4.14-3.66h8.8C192.3,134.02,192.32,133.86,192.32,133.74Zm-5.1-4.12a3.659,3.659,0,0,1,3.74,3.5H183.5A3.654,3.654,0,0,1,187.22,129.62Zm13.66-1.22a4.582,4.582,0,0,0-4.06,2.16v-2.08h-1.36v14.4h1.42v-5.86a4.6,4.6,0,0,0,4,2.08,5.351,5.351,0,0,0,0-10.7Zm-.1,9.44a4.1,4.1,0,1,1,3.92-4.1A3.852,3.852,0,0,1,200.78,137.84Zm16.1,1.16h1.68l-4.44-5.42,4.14-5.1h-1.54l-3.7,4.62H210.6v-4.62h-1.42V139h1.42v-4.68H213Zm10.62-5.44a2.437,2.437,0,0,0,1.78-2.38c0-1.74-1.46-2.7-3.84-2.7H220.8V139h4.78c2.74,0,4.06-1.04,4.06-2.86A2.429,2.429,0,0,0,227.5,133.56Zm-5.32-3.96h3.16c1.62,0,2.52.58,2.52,1.76s-.9,1.8-2.52,1.8h-3.16Zm3.34,8.28h-3.34v-3.66h3.48c1.78,0,2.58.58,2.58,1.84S227.3,137.88,225.52,137.88Zm7.44,1.12h1.28l7-8.36V139h1.42V128.48H241.4l-7.02,8.36v-8.36h-1.42Zm13.86.1a1.093,1.093,0,0,0,1.08-1.1,1.075,1.075,0,0,0-1.08-1.08,1.059,1.059,0,0,0-1.06,1.08A1.076,1.076,0,0,0,246.82,139.1Z" transform="translate(-2.02 -3.5)"/>
</svg>
