<svg xmlns="http://www.w3.org/2000/svg" width="203" height="38" viewBox="0 0 203 38">
  <defs>
    <style>
      .cls-1 {
        fill: #fff;
      }

      .cls-2 {
        fill: #28638b;
      }

      .cls-3 {
        fill: #335d7d;
      }
    </style>
  </defs>
  <g id="site" transform="translate(-114 -783)">
    <rect id="Rectangle_2" data-name="Rectangle 2" class="cls-1" width="203" height="38" rx="19" transform="translate(114 783)"/>
    <path id="Rectangle_2_-_Outline" data-name="Rectangle 2 - Outline" class="cls-2" d="M19,1A18,18,0,0,0,6.272,31.728,17.882,17.882,0,0,0,19,37H184A18,18,0,0,0,196.728,6.272,17.882,17.882,0,0,0,184,1H19m0-1H184a19,19,0,0,1,0,38H19A19,19,0,0,1,19,0Z" transform="translate(114 783)"/>
    <path id="Path_12" data-name="Path 12" class="cls-3" d="M11.367-.586A8.214,8.214,0,0,1,7.5.234,6.236,6.236,0,0,1,2.715-1.689a7.1,7.1,0,0,1-1.8-5.049,7.44,7.44,0,0,1,2.021-5.43,6.861,6.861,0,0,1,5.127-2.07,8.22,8.22,0,0,1,3.3.576v1.748a6.694,6.694,0,0,0-3.32-.84,5.1,5.1,0,0,0-3.911,1.611,6.07,6.07,0,0,0-1.5,4.307,5.776,5.776,0,0,0,1.4,4.077A4.768,4.768,0,0,0,7.715-1.24a6.9,6.9,0,0,0,3.652-.937ZM25.059,0H23.242L21.758-3.926H15.82L14.424,0H12.6l5.371-14h1.7ZM21.221-5.4l-2.2-5.967a5.713,5.713,0,0,1-.215-.937H18.77a5.231,5.231,0,0,1-.225.938L16.367-5.4ZM38.408,0H36.768V-10.117a12.819,12.819,0,0,1,.1-1.924h-.059a4.646,4.646,0,0,1-.449.879L29.15,0H27.119V-14H28.76v9.863a16.49,16.49,0,0,1-.078,2.061h.039a9.5,9.5,0,0,1,.547-.937L36.3-14h2.109Zm-2.07-18.262a3.125,3.125,0,0,1-1.108,2.173,3.65,3.65,0,0,1-2.407.8,3.593,3.593,0,0,1-2.417-.8,2.972,2.972,0,0,1-1.021-2.173h1.582a1.719,1.719,0,0,0,1.875,1.836,1.794,1.794,0,0,0,1.289-.483,2.206,2.206,0,0,0,.625-1.353ZM50.381-12.52H46.338V0H44.7V-12.52H40.664V-14h9.717ZM70.459,3.76H68.945V0H58.057V-14H59.7v12.52h7.246V-14h1.641v12.52h1.875ZM80.322,0H72.9V-14H80.01v1.484H74.541v4.658H79.6v1.475H74.541v4.9h5.781Zm4.336-5.293V0H83.018V-14h3.848a5.078,5.078,0,0,1,3.481,1.094,3.905,3.905,0,0,1,1.235,3.086A4.244,4.244,0,0,1,90.21-6.562,5.242,5.242,0,0,1,86.5-5.293Zm0-7.227v5.742h1.719a3.843,3.843,0,0,0,2.593-.776,2.749,2.749,0,0,0,.894-2.192q0-2.773-3.281-2.773ZM103.965,0H101.68L96.27-6.406a3.9,3.9,0,0,1-.371-.488h-.039V0H94.219V-14h1.641v6.582H95.9A3.861,3.861,0,0,1,96.27-7.9L101.5-14h2.041L97.539-7.285Zm1.855,0V-14H109.8a4.355,4.355,0,0,1,2.881.889A2.872,2.872,0,0,1,113.75-10.8a3.406,3.406,0,0,1-.645,2.07,3.476,3.476,0,0,1-1.777,1.25v.039a3.563,3.563,0,0,1,2.266,1.069,3.289,3.289,0,0,1,.85,2.349,3.661,3.661,0,0,1-1.289,2.91A4.8,4.8,0,0,1,109.9,0Zm1.641-12.52V-8h1.68a3.19,3.19,0,0,0,2.119-.649,2.261,2.261,0,0,0,.771-1.831q0-2.041-2.686-2.041Zm0,6v5.039h2.227a3.336,3.336,0,0,0,2.241-.684,2.342,2.342,0,0,0,.8-1.875q0-2.48-3.379-2.48ZM128.574,0h-1.641V-10.117a12.82,12.82,0,0,1,.1-1.924h-.059a4.646,4.646,0,0,1-.449.879L119.316,0h-2.031V-14h1.641v9.863a16.49,16.49,0,0,1-.078,2.061h.039a9.5,9.5,0,0,1,.547-.937L126.465-14h2.109Z" transform="translate(150 810)"/>
  </g>
</svg>
